<?xml version="1.0" encoding="UTF-8" standalone="no"?>
<!DOCTYPE svg  PUBLIC '-//W3C//DTD SVG 1.1//EN'  'http://www.w3.org/Graphics/SVG/1.1/DTD/svg11.dtd'>
<svg xmlns="http://www.w3.org/2000/svg">
<defs>
<font id="YSLsansC-Bold" horiz-adv-x="540">
<font-face underline-position="8" font-weight="700" descent="-200" panose-1="2 11 7 3 5 6 3 6 2 4" units-per-em="1000" unicode-range="U+0020-25CA" bbox="-133 -243 1281 875" x-height="514" underline-thickness="134" font-family="YSLsansC" ascent="800" cap-height="682"/>
<missing-glyph horiz-adv-x="1000"/>
<glyph glyph-name=".notdef" horiz-adv-x="1000"/>
<glyph glyph-name=".null" horiz-adv-x="0"/>
<glyph glyph-name=".null" horiz-adv-x="0"/>
<glyph glyph-name="nonmarkingreturn" horiz-adv-x="333"/>
<glyph glyph-name="space" horiz-adv-x="270" unicode=" "/>
<glyph glyph-name="space" horiz-adv-x="270" unicode=" "/>
<glyph glyph-name="exclam" horiz-adv-x="314" unicode="!" d="M233 0h-154v154h154v-154zM226 231h-139l-18 519h176z"/>
<glyph glyph-name="quotedbl" horiz-adv-x="493" unicode='&quot;' d="M422 382h-141l-3 300h147zM212 382h-141l-3 300h147z"/>
<glyph glyph-name="numbersign" horiz-adv-x="568" unicode="#" d="M315 285l14 113h-79l-13 -113h78zM415 190l-23 -190h-111l23 190h-78l-23 -190h-112l22 190h-86v95h97l14 113h-87v95h99l23 189h111l-23 -189h79l23 189h111l-22 -189h89v-95h-101l-14 -113h91v-95h-102z"/>
<glyph glyph-name="dollar" horiz-adv-x="526" unicode="$" d="M179 499q0 -28 36 -48v100q-36 -14 -36 -52zM350 187q0 29 -38 50v-105q38 15 38 55zM312 -142h-125v127q-84 9 -147 47v156h4q46 -48 143 -62v162q-66 29 -105 74t-39 124t42 136.5t130 72.5v129h125v-129q68 -11 126 -45v-150h-4q-53 42 -122 54v-156 q66 -30 105.5 -75.5t39.5 -124.5t-45 -135.5t-128 -73.5v-131z"/>
<glyph glyph-name="percent" horiz-adv-x="917" unicode="%" d="M362 0h-134l327 682h134zM786 222q0 71 -14.5 98.5t-41.5 27.5t-41.5 -27t-14.5 -99q0 -127 55 -127q57 0 57 127zM907 222q0 -119 -50 -176.5t-128 -57.5q-77 0 -126.5 57.5t-49.5 176.5t49.5 176t126.5 57q78 0 128 -57t50 -176zM243 461q0 71 -14.5 98.5t-41.5 27.5 t-41.5 -27t-14.5 -99q0 -127 55 -127q57 0 57 127zM364 461q0 -119 -50 -176.5t-128 -57.5q-77 0 -126.5 57.5t-49.5 176.5t49.5 176t126.5 57q78 0 128 -57t50 -176z"/>
<glyph glyph-name="ampersand" horiz-adv-x="755" unicode="&amp;" d="M343 -18q-151 0 -228.5 53.5t-77.5 151.5q0 67 36.5 112t103.5 66v1q-98 47 -98 154q0 78 60.5 129t174.5 51q96 0 171 -36v-160h-4q-59 53 -140 53q-41 0 -64.5 -17.5t-23.5 -48.5q0 -29 20 -46.5t53 -17.5h30v-143h-79q-69 -19 -69 -77q0 -83 136 -83q132 0 132 85 q0 59 -69 75v3l32 140h280v-143h-118v-1q46 -46 46 -106q0 -92 -76.5 -143.5t-227.5 -51.5z"/>
<glyph glyph-name="quotesingle" horiz-adv-x="270" unicode="&apos;" d="M205 382h-141l-3 300h147z"/>
<glyph glyph-name="parenleft" horiz-adv-x="375" unicode="(" d="M368 -142h-156q-73 85 -114 193.5t-41 227.5t41 227.5t114 193.5h156q-154 -178 -154 -421t154 -421z"/>
<glyph glyph-name="parenright" horiz-adv-x="375" unicode=")" d="M164 -142h-157q73 85 114 193.5t41 227.5t-41 227.5t-114 193.5h157q154 -180 154 -421t-154 -421z"/>
<glyph glyph-name="asterisk" horiz-adv-x="568" unicode="*" d="M474 279l-94 -77l-96 124l-96 -124l-94 77l96 123l-154 56l42 113l146 -53v164h120v-164l146 53l42 -113l-155 -56z"/>
<glyph glyph-name="plus" d="M331 53h-122v173h-171v120h171v175h121v-175h172v-120h-171v-173z" unicode="+"/>
<glyph glyph-name="comma" horiz-adv-x="270" unicode="," d="M150 -138h-148l79 300h151v-5z"/>
<glyph glyph-name="hyphen" horiz-adv-x="270" unicode="-" d="M267 195h-264v148h264v-148z"/>
<glyph glyph-name="period" horiz-adv-x="270" unicode="." d="M216 0h-162v162h162v-162z"/>
<glyph glyph-name="slash" horiz-adv-x="439" unicode="/" d="M155 0h-158l287 682h159z"/>
<glyph glyph-name="zero" horiz-adv-x="632" unicode="0" d="M424 341q0 111 -27.5 159.5t-80.5 48.5q-107 0 -107 -208t107 -208q53 0 80.5 48.5t27.5 159.5zM593 341q0 -183 -77.5 -271t-199.5 -88t-199.5 88.5t-77.5 270.5q0 94 22 165t61 112.5t87.5 61.5t106.5 20q122 0 199.5 -88t77.5 -271z"/>
<glyph glyph-name="one" horiz-adv-x="443" unicode="1" d="M360 0h-167v506l-157 -38h-3v157l324 75h3v-700z"/>
<glyph glyph-name="two" horiz-adv-x="568" unicode="2" d="M543 0h-500v122q153 122 206 195.5t53 138.5q0 47 -25.5 73.5t-67.5 26.5q-79 0 -149 -72h-3v163q89 53 185 53q102 0 168.5 -58.5t66.5 -165.5q0 -53 -12 -95.5t-42 -85.5t-56 -71.5t-79 -81.5v-1h255v-141z"/>
<glyph glyph-name="three" horiz-adv-x="546" unicode="3" d="M509 174q0 -90 -64.5 -141t-176.5 -51q-118 0 -207 50v162h3q31 -31 81 -50t93 -19q46 0 73 19t27 55q0 32 -25 50.5t-71 18.5h-104v143h103q56 22 56 72q0 34 -24 53.5t-66 19.5q-76 0 -139 -68h-3v163q84 49 182 49q99 0 161 -51t62 -137q0 -104 -95 -159v-1 q62 -15 98 -61t36 -117z"/>
<glyph glyph-name="four" horiz-adv-x="568" unicode="4" d="M304 277v181h-1l-125 -180v-1h126zM548 142h-82v-142h-166v142h-275v131l307 427h134v-423h82v-135z"/>
<glyph glyph-name="five" horiz-adv-x="533" unicode="5" d="M497 215q0 -110 -69.5 -171.5t-181.5 -61.5q-113 0 -197 50v162h4q32 -32 77.5 -51t90.5 -19q47 0 76.5 23t29.5 66q0 44 -34.5 68t-97.5 24q-67 0 -133 -27h-3l64 404h351v-144h-233l-18 -105q38 5 55 5q96 0 157.5 -60.5t61.5 -162.5z"/>
<glyph glyph-name="six" horiz-adv-x="590" unicode="6" d="M384 209q0 42 -22.5 68t-64.5 26t-66.5 -24t-24.5 -70q0 -43 22.5 -68t64.5 -25t66.5 23.5t24.5 69.5zM555 209q0 -108 -72 -167.5t-187 -59.5q-118 0 -189 60t-71 167q0 73 39 137l212 336h199v-2l-165 -256v-2q3 0 10.5 0.5t11.5 0.5q11 0 33 -2q78 -11 128.5 -68 t50.5 -144z"/>
<glyph glyph-name="seven" horiz-adv-x="568" unicode="7" d="M255 1h-181v2l248 524v1h-291v155h529v-10z"/>
<glyph glyph-name="eight" horiz-adv-x="583" unicode="8" d="M367 493q0 33 -19.5 53t-55.5 20q-37 0 -57.5 -20t-20.5 -53t20.5 -54t57.5 -21q35 0 55 21t20 54zM377 200q0 38 -22.5 61t-62.5 23q-42 0 -64.5 -23t-22.5 -61t22.5 -61t64.5 -23q40 0 62.5 23t22.5 61zM548 192q0 -98 -70 -154t-186 -56q-118 0 -187.5 55.5 t-69.5 154.5q0 121 105 172v1q-80 47 -80 147q0 88 63 138t169 50q105 0 168 -50.5t63 -137.5q0 -97 -80 -147v-1q105 -51 105 -172z"/>
<glyph glyph-name="nine" horiz-adv-x="590" unicode="9" d="M385 473q0 42 -22.5 67.5t-64.5 25.5t-67 -23.5t-25 -69.5q0 -42 23 -68t65 -26t66.5 24t24.5 70zM304 0h-199v2l165 256v2q-7 -1 -21 -1q-10 0 -34 2q-78 11 -128.5 68t-50.5 144q0 108 71.5 167.5t187.5 59.5q118 0 189 -60t71 -167q0 -42 -11.5 -76t-41.5 -82z"/>
<glyph glyph-name="colon" horiz-adv-x="270" unicode=":" d="M216 352h-162v162h162v-162zM216 0h-162v162h162v-162z"/>
<glyph glyph-name="semicolon" horiz-adv-x="270" unicode=";" d="M137 -138h-149l80 300h150v-5zM216 352h-162v162h162v-162z"/>
<glyph glyph-name="less" d="M502 60l-464 167v117l464 168v-138l-290 -86v-2l290 -89v-137z" unicode="&lt;"/>
<glyph glyph-name="equal" d="M502 340h-464v118h464v-118zM502 117h-464v117h464v-117z" unicode="="/>
<glyph glyph-name="greater" d="M502 227l-464 -167v137l290 89v2l-290 86v138l464 -168v-117z" unicode="&gt;"/>
<glyph glyph-name="question" horiz-adv-x="470" unicode="?" d="M296 0h-155v154h155v-154zM289 231h-139v5q62 130 82.5 184t20.5 100q0 47 -24 70.5t-64 23.5q-69 0 -118 -66h-4v158q74 51 175 51q95 0 153.5 -52t58.5 -141q0 -64 -33 -137.5t-108 -195.5z"/>
<glyph glyph-name="at" horiz-adv-x="906" unicode="@" d="M497 -160q-211 0 -335 113.5t-124 316.5q0 196 114.5 313t300.5 117q181 0 298 -101t117 -279q0 -129 -59 -196t-168 -67h-105v32h-1q-53 -48 -125 -48q-83 0 -135 63.5t-52 167.5q0 107 55.5 169t142.5 62q72 0 128 -43h1l113 37h7v-333q37 0 59.5 39t22.5 108 q0 137 -79.5 209.5t-215.5 72.5q-135 0 -217.5 -86.5t-82.5 -236.5q0 -148 91.5 -232t255.5 -84q173 0 277 72h4v-126q-112 -60 -288 -60zM455 171q44 0 72 37v134q-28 32 -69 32q-40 0 -63.5 -26.5t-23.5 -75.5q0 -48 23 -74.5t61 -26.5z"/>
<glyph glyph-name="A" horiz-adv-x="707" unicode="A" d="M411 299l-61 178h-1l-61 -178h123zM697 0h-188l-51 149h-217l-50 -149h-181l266 700h154z"/>
<glyph glyph-name="B" horiz-adv-x="649" unicode="B" d="M390 477q0 26 -19.5 42t-52.5 16h-61v-121h79q54 18 54 63zM431 212q0 29 -22 44.5t-59 15.5h-93v-125h90q84 0 84 65zM603 184q0 -184 -245 -184h-272v682h263q98 0 156.5 -45.5t58.5 -128.5q0 -103 -95 -157v-1q56 -13 95 -56t39 -110z"/>
<glyph glyph-name="C" horiz-adv-x="610" unicode="C" d="M563 226v-184q-88 -60 -209 -60q-139 0 -227.5 96t-88.5 263q0 162 85 260.5t227 98.5q124 0 209 -60v-184h-4q-66 81 -172 81q-77 0 -122 -53t-45 -143q0 -89 45.5 -142.5t124.5 -53.5q49 0 95.5 21.5t77.5 59.5h4z"/>
<glyph glyph-name="D" horiz-adv-x="730" unicode="D" d="M519 341q0 88 -50.5 135.5t-130.5 47.5h-81v-366h81q80 0 130.5 47t50.5 136zM692 341q0 -111 -48.5 -189.5t-125.5 -115t-174 -36.5h-258v682h258q96 0 173.5 -36.5t126 -115t48.5 -189.5z"/>
<glyph glyph-name="E" horiz-adv-x="556" unicode="E" d="M503 0h-417v682h391v-153h-220v-106h210v-153h-210v-117h246v-153z"/>
<glyph glyph-name="F" horiz-adv-x="520" unicode="F" d="M257 0h-171v682h391v-158h-220v-131h210v-158h-210v-235z"/>
<glyph glyph-name="G" horiz-adv-x="715" unicode="G" d="M370 -18q-147 0 -239.5 96.5t-92.5 262.5q0 162 93 260.5t253 98.5q130 0 239 -62v-175h-4q-86 83 -211 83q-93 0 -142.5 -56.5t-49.5 -154.5q0 -101 43.5 -153.5t109.5 -52.5q55 0 90 27.5t40 83.5h-165v5l49 145h292q2 -36 2 -72q0 -166 -83.5 -251t-223.5 -85z"/>
<glyph glyph-name="H" horiz-adv-x="768" unicode="H" d="M682 0h-171v271h-254v-271h-171v682h171v-249h254v249h171v-682z"/>
<glyph glyph-name="I" horiz-adv-x="343" unicode="I" d="M257 0h-171v682h171v-682z"/>
<glyph glyph-name="J" horiz-adv-x="458" unicode="J" d="M172 -18q-67 0 -119 29v169h4q33 -39 80 -39q74 0 74 86v292h-167v6l53 157h284v-490q0 -96 -49.5 -153t-159.5 -57z"/>
<glyph glyph-name="K" horiz-adv-x="677" unicode="K" d="M657 0h-198l-192 343v6l182 333h195l-190 -333v-2zM257 0h-171v682h171v-682z"/>
<glyph glyph-name="L" horiz-adv-x="520" unicode="L" d="M483 0h-397v682h171v-520h226v-162z"/>
<glyph glyph-name="M" horiz-adv-x="891" unicode="M" d="M828 0h-172l-29 317h-1l-174 -335h-12l-177 336h-1l-27 -318h-172l60 688h139l183 -371h1l183 371h139z"/>
<glyph glyph-name="N" horiz-adv-x="775" unicode="N" d="M689 -6h-141l-290 368h-1v-362h-171v625l-35 50v7h174l292 -378h1v378h171v-688z"/>
<glyph glyph-name="O" horiz-adv-x="762" unicode="O" d="M546 341q0 94 -44.5 147.5t-117.5 53.5q-75 0 -121 -52t-46 -149q0 -94 44 -148t118 -54t120.5 52.5t46.5 149.5zM724 341q0 -164 -95 -261.5t-250 -97.5q-150 0 -245.5 97.5t-95.5 261.5t95.5 261.5t250.5 97.5q149 0 244.5 -97.5t95.5 -261.5z"/>
<glyph glyph-name="P" horiz-adv-x="632" unicode="P" d="M417 448q0 38 -25 59.5t-67 21.5h-68v-181q82 3 121 30t39 70zM589 464q0 -120 -81.5 -185.5t-250.5 -83.5v-195h-171v682h256q109 0 178 -57t69 -161z"/>
<glyph glyph-name="Q" horiz-adv-x="762" unicode="Q" d="M546 341q0 94 -44.5 147.5t-117.5 53.5q-74 0 -121 -52.5t-47 -148.5q0 -94 45 -147.5t118 -53.5q74 0 120.5 52.5t46.5 148.5zM724 341q0 -133 -64.5 -223t-172.5 -121l157 -190h-196l-131 181q-124 19 -201.5 112.5t-77.5 240.5q0 164 95.5 261.5t250.5 97.5 q149 0 244.5 -97.5t95.5 -261.5z"/>
<glyph glyph-name="R" horiz-adv-x="681" unicode="R" d="M658 0h-200l-191 325v6q89 14 127 42.5t38 71.5q0 40 -28 62.5t-78 22.5h-69v-530h-171v682h273q111 0 178 -54.5t67 -158.5q0 -70 -26.5 -118t-85.5 -83v-2z"/>
<glyph glyph-name="S" horiz-adv-x="557" unicode="S" d="M514 198q0 -95 -65 -155.5t-180 -60.5q-121 0 -209 55v168h3q36 -36 89.5 -56.5t102.5 -20.5q88 0 88 57q0 27 -29 47t-70 36.5t-82 39t-70 67t-29 108.5q0 92 57.5 154.5t175.5 62.5q114 0 194 -55v-168h-3q-72 76 -175 76q-77 0 -77 -53q0 -23 20.5 -41.5t51.5 -30 t67.5 -30.5t67.5 -41t51.5 -63t20.5 -96z"/>
<glyph glyph-name="T" horiz-adv-x="584" unicode="T" d="M378 -1h-171v520h-177v162h524v-162h-176v-520z"/>
<glyph glyph-name="U" horiz-adv-x="685" unicode="U" d="M343 -18q-126 0 -196.5 62t-70.5 179v459h171v-444q0 -98 92 -98q91 0 91 98v444h179v-459q0 -117 -70.5 -179t-195.5 -62z"/>
<glyph glyph-name="V" horiz-adv-x="684" unicode="V" d="M412 -18h-140l-264 700h189l148 -446h1l148 446h181z"/>
<glyph glyph-name="W" horiz-adv-x="1012" unicode="W" d="M759 -18h-140l-112 318h-1l-112 -318h-141l-240 700h187l134 -418h1l89 281l-42 137h176l130 -418h1l131 418h179z"/>
<glyph glyph-name="X" horiz-adv-x="721" unicode="X" d="M695 0h-205l-130 217h-1l-119 -217h-200l195 347l-209 335h204l127 -215h1l120 215h200l-195 -337z"/>
<glyph glyph-name="Y" horiz-adv-x="663" unicode="Y" d="M418 0h-171v257l-240 425h203l119 -237h1l128 237h198l-238 -424v-258z"/>
<glyph glyph-name="Z" horiz-adv-x="673" unicode="Z" d="M622 0h-573v10l268 505v1h-246v166h529v-10l-268 -505v-1h290v-166z"/>
<glyph glyph-name="bracketleft" horiz-adv-x="373" unicode="[" d="M337 -142h-260v842h260v-131h-112v-580h112v-131z"/>
<glyph glyph-name="backslash" horiz-adv-x="439" unicode="\" d="M443 0h-159l-287 682h158z"/>
<glyph glyph-name="bracketright" horiz-adv-x="373" unicode="]" d="M37 700h260v-842h-260v131h112v580h-112v131z"/>
<glyph glyph-name="asciicircum" d="M496 199h-139l-87 267h-2l-87 -267h-138l168 421h117z" unicode="^"/>
<glyph glyph-name="underscore" d="M530 -193h-520v134h520v-134z" unicode="_"/>
<glyph glyph-name="a" horiz-adv-x="591" unicode="a" d="M362 148v32q-35 19 -83 19q-72 0 -72 -43q0 -20 18 -33t51 -13q54 0 86 38zM524 0h-158v36h-1q-61 -54 -143 -54q-74 0 -124 44.5t-50 123.5q0 77 50.5 123t141.5 46q68 0 122 -28v24q0 41 -33.5 61t-87.5 20q-91 0 -159 -63h-3v149q83 50 196 50q112 0 180.5 -54.5 t68.5 -169.5v-308z"/>
<glyph glyph-name="b" horiz-adv-x="642" unicode="b" d="M440 257q0 62 -30 97t-77 35q-56 0 -96 -51v-168q39 -45 93 -45q49 0 79.5 34.5t30.5 97.5zM609 257q0 -127 -65.5 -201t-169.5 -74q-84 0 -152 51h-1l-143 -45h-3v762h162v-274h1q66 56 149 56q100 0 161 -75t61 -200z"/>
<glyph glyph-name="c" horiz-adv-x="475" unicode="c" d="M436 190v-162q-67 -46 -160 -46q-107 0 -177 73.5t-70 201.5q0 124 67.5 199.5t177.5 75.5q95 0 159 -46v-161h-3q-21 28 -53.5 45.5t-67.5 17.5q-50 0 -80 -36t-30 -96q0 -59 31.5 -95t85.5 -36q33 0 65 18.5t52 46.5h3z"/>
<glyph glyph-name="d" horiz-adv-x="642" unicode="d" d="M406 176v167q-40 46 -94 46q-49 0 -79 -34.5t-30 -97.5t29.5 -97.5t76.5 -34.5q57 0 97 51zM568 0h-161v38h-1q-67 -56 -151 -56q-100 0 -161 75t-61 200q0 127 65.5 201t169.5 74q82 0 137 -39h1v257h162v-750z"/>
<glyph glyph-name="e" horiz-adv-x="581" unicode="e" d="M373 345q-5 28 -27.5 46t-56.5 18q-75 0 -89 -64h173zM518 31q-77 -49 -199 -49q-130 0 -210 73.5t-80 201.5q0 125 69.5 200t191.5 75q108 0 180.5 -67t72.5 -182q0 -33 -3 -60h-340q9 -51 48.5 -79t104.5 -28q95 0 162 62h3v-147z"/>
<glyph glyph-name="f" horiz-adv-x="383" unicode="f" d="M246 0h-162v374h-59v5l59 135v57q0 87 48 136.5t135 49.5q68 0 117 -25v-144h-3q-34 31 -74 31q-30 0 -45.5 -17.5t-15.5 -46.5v-41h114v-140h-114v-374z"/>
<glyph glyph-name="g" horiz-adv-x="633" unicode="g" d="M308 -200q-126 0 -208 51v151h4q69 -66 179 -66q56 0 87 24.5t31 65.5v29h-1q-62 -55 -151 -55q-93 0 -154.5 69.5t-61.5 196.5t64.5 196.5t168.5 69.5q84 0 150 -51h2l142 45h3v-488q0 -112 -70.5 -175t-184.5 -63zM401 184v168q-35 37 -84 37q-50 0 -80.5 -33 t-30.5 -90t30 -90t78 -33q54 0 87 41z"/>
<glyph glyph-name="h" horiz-adv-x="640" unicode="h" d="M570 0h-162v297q0 45 -22 68.5t-59 23.5q-52 0 -90 -51v-338h-162v750h162v-274h1q62 56 146 56q79 0 132.5 -47t53.5 -136v-349z"/>
<glyph glyph-name="i" horiz-adv-x="311" unicode="i" d="M241 616h-170v134h170v-134zM237 0h-162v514h162v-514z"/>
<glyph glyph-name="j" horiz-adv-x="311" unicode="j" d="M241 616h-170v134h170v-134zM57 -193q-69 0 -116 25v135h3q31 -29 71 -29q60 0 60 68v508h162v-516q0 -96 -47.5 -143.5t-132.5 -47.5z"/>
<glyph glyph-name="k" horiz-adv-x="609" unicode="k" d="M595 0h-190l-160 258v4l152 252h186l-159 -252v-2zM237 0h-162v750h162v-750z"/>
<glyph glyph-name="l" horiz-adv-x="311" unicode="l" d="M237 0h-162v750h162v-750z"/>
<glyph glyph-name="m" horiz-adv-x="973" unicode="m" d="M903 0h-162v297q0 45 -22 68.5t-59 23.5q-55 0 -93 -55q3 -18 3 -37v-297h-162v297q0 45 -22 68.5t-59 23.5q-52 0 -90 -51v-338h-162v514h161v-39h1q62 57 149 57q49 0 90 -20t65 -58h1q45 41 85.5 59.5t91.5 18.5q78 0 131 -47t53 -136v-349z"/>
<glyph glyph-name="n" horiz-adv-x="652" unicode="n" d="M582 0h-162v297q0 45 -23.5 68.5t-62.5 23.5q-57 0 -97 -51v-338h-162v514h161v-39h1q65 57 152 57q82 0 137.5 -47t55.5 -136v-349z"/>
<glyph glyph-name="o" horiz-adv-x="618" unicode="o" d="M590 257q0 -125 -77.5 -200t-204.5 -75q-124 0 -201.5 75t-77.5 200t77 200t205 75q124 0 201.5 -75t77.5 -200zM419 257q0 62 -29.5 99t-78.5 37q-51 0 -81.5 -36t-30.5 -100q0 -63 29.5 -99.5t79.5 -36.5q51 0 81 35.5t30 100.5z"/>
<glyph glyph-name="p" horiz-adv-x="642" unicode="p" d="M440 257q0 62 -30 97t-77 35q-56 0 -96 -51v-168q39 -45 93 -45q49 0 79.5 34.5t30.5 97.5zM609 257q0 -127 -65.5 -201t-169.5 -74q-82 0 -136 39h-1v-214h-162v707h161v-39h1q65 57 150 57q100 0 161 -75t61 -200z"/>
<glyph glyph-name="q" horiz-adv-x="642" unicode="q" d="M406 176v167q-40 46 -94 46q-49 0 -79 -34.5t-30 -97.5t29.5 -97.5t76.5 -34.5q57 0 97 51zM568 -193h-162v231h-1q-66 -56 -150 -56q-100 0 -161 75t-61 200q0 127 65.5 201t169.5 74q86 0 152 -51h1l144 45h3v-719z"/>
<glyph glyph-name="r" horiz-adv-x="432" unicode="r" d="M238 0h-162v514h154v-41h1q64 59 125 59q30 0 53 -10v-158h-4q-31 20 -66 20q-48 0 -101 -45v-339z"/>
<glyph glyph-name="s" horiz-adv-x="489" unicode="s" d="M440 154q0 -79 -52.5 -125.5t-155.5 -46.5q-106 0 -176 40v149h3q28 -29 73 -45.5t88 -16.5q63 0 63 35q0 13 -12.5 22t-32.5 16t-44 15t-47.5 20.5t-43.5 30t-32.5 47t-12.5 68.5q0 79 50.5 124t144.5 45q101 0 169 -41v-148h-3q-29 28 -70 45t-80 17q-51 0 -51 -34 q0 -17 23 -28t55.5 -22t65 -27t55.5 -52t23 -88z"/>
<glyph glyph-name="t" horiz-adv-x="383" unicode="t" d="M246 0h-162v374h-59v5l59 135v152h162v-152h114v-140h-114v-374z"/>
<glyph glyph-name="u" horiz-adv-x="629" unicode="u" d="M562 514v-297q0 -110 -65.5 -172.5t-183.5 -62.5q-115 0 -180.5 62.5t-65.5 172.5v297h162v-298q0 -95 85 -95q40 0 63 24t23 71v298h162z"/>
<glyph glyph-name="v" horiz-adv-x="594" unicode="v" d="M359 -18h-124l-227 532h184l105 -299h1l104 299h184z"/>
<glyph glyph-name="w" horiz-adv-x="881" unicode="w" d="M666 -18h-110l-114 224h-1l-117 -224h-110l-203 532h182l90 -258h1l150 276h14l148 -276h1l90 258h182z"/>
<glyph glyph-name="x" horiz-adv-x="592" unicode="x" d="M583 0h-190l-98 155h-1l-88 -155h-185l158 262l-169 252h189l97 -154h1l88 154h186l-160 -256z"/>
<glyph glyph-name="y" horiz-adv-x="595" unicode="y" d="M321 -193h-181l80 194l-213 513h185l110 -308h1l100 308h181z"/>
<glyph glyph-name="z" horiz-adv-x="528" unicode="z" d="M495 0h-475v10l200 363v1h-181v140h438v-11l-201 -363v-1h219v-139z"/>
<glyph glyph-name="braceleft" horiz-adv-x="397" unicode="{" d="M364 -142q-153 0 -206.5 50t-53.5 180v120l-66 69v4l66 69v120q0 130 53.5 180t206.5 50v-131q-66 0 -89 -23.5t-23 -77.5v-122l-62 -67l62 -67v-122q0 -54 23 -77.5t89 -23.5v-131z"/>
<glyph glyph-name="bar" horiz-adv-x="270" unicode="|" d="M202 -190h-134v980h134v-980z"/>
<glyph glyph-name="braceright" horiz-adv-x="397" unicode="}" d="M34 700q152 0 206 -50t54 -180v-120l65 -69v-4l-65 -69v-120q0 -130 -54 -180t-206 -50v131q66 0 88.5 23.5t22.5 77.5v122l62 67l-62 67v122q0 54 -22.5 77.5t-88.5 23.5v131z"/>
<glyph glyph-name="asciitilde" d="M491 253q-50 -52 -115 -52q-38 0 -107 31t-102 31q-63 0 -118 -62v127q51 51 116 51q38 0 107 -30.5t101 -30.5q65 0 118 60v-125z" unicode="~"/>
<glyph glyph-name="exclamdown" horiz-adv-x="314" unicode="¡" d="M235 360h-155v154h155v-154zM245 -236h-176l18 519h139z"/>
<glyph glyph-name="cent" horiz-adv-x="538" unicode="¢" d="M205 270q0 -110 82 -137v275q-82 -28 -82 -138zM411 -142h-124v125q-118 9 -185 84t-67 203q0 124 67.5 201t184.5 86v125h124v-137q47 -12 82 -35v-159h-4q-32 38 -78 54v-271q49 18 81 55h4v-159q-39 -26 -85 -36v-136z"/>
<glyph glyph-name="sterling" horiz-adv-x="568" unicode="£" d="M513 0h-470v141h90l-14 125h-76v134h62l-4 42q-4 36 -4 54q0 91 63 147.5t178 56.5q107 0 185 -49v-167h-4q-29 32 -71.5 51.5t-86.5 19.5q-47 0 -70.5 -24t-23.5 -62q0 -1 3 -43l3 -26h187v-134h-173l14 -125h212v-141z"/>
<glyph glyph-name="currency" d="M334 289q0 28 -18.5 49.5t-45.5 21.5q-28 0 -46.5 -21t-18.5 -50q0 -28 18.5 -48.5t46.5 -20.5q27 0 45.5 20.5t18.5 48.5zM440 289q0 -35 -17 -67l66 -66l-85 -84l-67 65q-30 -16 -67 -16q-32 0 -68 16l-68 -67l-85 84l69 69q-16 36 -16 66q0 32 16 66l-68 69l85 85 l68 -67q32 17 67 17q33 0 69 -17l67 69l84 -86l-67 -66q17 -36 17 -70z" unicode="¤"/>
<glyph glyph-name="yen" horiz-adv-x="568" unicode="¥" d="M378 0h-167v135h-175v113h175v42h-175v113h125l-136 279h181l88 -231h1l81 231h172l-125 -279h114v-113h-159v-42h159v-113h-159v-135z"/>
<glyph glyph-name="brokenbar" horiz-adv-x="270" unicode="¦" d="M202 -190h-134v407h134v-407zM202 383h-134v407h134v-407z"/>
<glyph glyph-name="section" horiz-adv-x="568" unicode="§" d="M359 273q0 36 -19 58.5t-55 22.5t-57 -20.5t-21 -60.5q0 -37 19 -59.5t55 -22.5t57 21t21 61zM530 273q0 -121 -100 -172v-1q49 -34 49 -91q0 -77 -52.5 -123.5t-154.5 -46.5q-106 0 -177 41v142h3q28 -27 73 -43t86 -16q64 0 64 40q0 20 -15 30.5t-52.5 20t-52.5 15.5 q-77 19 -120.5 71t-43.5 133q0 120 102 173v1q-43 34 -43 87q0 77 50.5 121.5t145.5 44.5q99 0 168 -40v-143h-3q-28 28 -69.5 43.5t-78.5 15.5q-53 0 -53 -38q0 -12 4.5 -20t16.5 -14t20 -9t29 -8.5t29 -7.5q81 -15 128 -68.5t47 -137.5z"/>
<glyph glyph-name="copyright" horiz-adv-x="788" unicode="©" d="M389 62q119 0 193.5 72t74.5 208q0 130 -71 204t-186 74q-118 0 -193.5 -71.5t-75.5 -206.5q0 -131 71 -205.5t187 -74.5zM392 -18q-155 0 -254.5 97.5t-99.5 261.5t99 261.5t260 97.5q155 0 254 -97.5t99 -261.5t-98.5 -261.5t-259.5 -97.5zM403 132q-82 0 -133.5 55.5 t-51.5 152.5q0 93 49.5 150.5t133.5 57.5q67 0 121 -32v-117h-2q-38 40 -97 40q-42 0 -64.5 -26.5t-22.5 -72.5t23 -73t65 -27q58 0 98 40h2v-116q-53 -32 -121 -32z"/>
<glyph glyph-name="ordfeminine" horiz-adv-x="392" unicode="ª" d="M233 386v29q-24 11 -46 11q-44 0 -44 -29q0 -28 40 -28q30 0 50 17zM348 295h-112v23h-1q-39 -35 -92 -35q-47 0 -80 29.5t-33 80.5q0 50 33 80t92 30q47 0 78 -18v16q0 47 -77 47q-60 0 -103 -38h-3v101q59 31 131 31q75 0 121 -36t46 -113v-198zM349 116h-303v106h303 v-106z"/>
<glyph glyph-name="guillemotleft" horiz-adv-x="537" unicode="«" d="M508 75h-148l-116 191v6l116 191h148l-110 -194zM294 75h-148l-116 191v6l116 191h148l-110 -194z"/>
<glyph glyph-name="logicalnot" d="M502 169h-121v165h-343v120h464v-285z" unicode="¬"/>
<glyph glyph-name="registered" horiz-adv-x="788" unicode="®" d="M389 62q119 0 193.5 72t74.5 208q0 130 -71 204t-186 74q-118 0 -193.5 -71.5t-75.5 -206.5q0 -131 71 -205.5t187 -74.5zM392 -18q-155 0 -254.5 97.5t-99.5 261.5t99 261.5t260 97.5q155 0 254 -97.5t99 -261.5t-98.5 -261.5t-259.5 -97.5zM352 142h-113v396h171 q65 0 104.5 -32t39.5 -94q0 -40 -15.5 -64.5t-51.5 -43.5v-2l97 -160h-129l-98 190v4q45 7 64.5 22t19.5 39q0 20 -14.5 31.5t-38.5 11.5h-36v-298z"/>
<glyph glyph-name="degree" horiz-adv-x="370" unicode="°" d="M232 554q0 30 -12.5 46.5t-33.5 16.5q-47 0 -47 -63q0 -30 12.5 -46.5t33.5 -16.5q47 0 47 63zM340 554q0 -61 -42 -100t-113 -39t-113 39t-42 100t42.5 100t113.5 39t112.5 -39t41.5 -100z"/>
<glyph glyph-name="plusminus" d="M330 208h-119v120h-173v118h171v126h120v-126h173v-118h-172v-120zM502 56h-464v119h464v-119z" unicode="±"/>
<glyph glyph-name="twosuperior" horiz-adv-x="374" unicode="²" d="M358 295h-329v87q97 76 130.5 122t33.5 85q0 28 -15.5 44t-42.5 16q-45 0 -95 -43h-2v110q58 34 121 34q67 0 111.5 -38t44.5 -108q0 -43 -17 -81t-35.5 -60t-62.5 -67v-1h158v-100z"/>
<glyph glyph-name="threesuperior" horiz-adv-x="374" unicode="³" d="M346 409q0 -59 -42 -92.5t-116 -33.5q-77 0 -138 33v110h3q21 -18 53.5 -30.5t59.5 -12.5q28 0 44 11t16 32q0 39 -57 39h-69v101h66q32 12 32 41q0 20 -14 31t-39 11q-48 0 -90 -42h-2v111q54 32 121 32q66 0 106.5 -33t40.5 -89q0 -71 -65 -104v-1q42 -9 66 -39t24 -75 z"/>
<glyph glyph-name="mu" horiz-adv-x="644" unicode="µ" d="M570 0h-154v38h-1q-48 -56 -108 -56q-59 0 -88 38h-1q14 -99 19 -163l-161 -50h-1v707h162v-294q0 -48 23 -71.5t62 -23.5q66 0 86 67v322h162v-514z"/>
<glyph glyph-name="paragraph" horiz-adv-x="627" unicode="¶" d="M537 -142h-162v340q-172 20 -252 82t-80 184q0 108 68 163t179 55h247v-824z"/>
<glyph glyph-name="onesuperior" horiz-adv-x="374" unicode="¹" d="M281 295h-118v318l-103 -23h-2v111l221 49h2v-455z"/>
<glyph glyph-name="ordmasculine" horiz-adv-x="407" unicode="º" d="M389 462q0 -81 -51 -130t-136 -49q-82 0 -133 49t-51 130q0 82 51 131t136 49q82 0 133 -49t51 -131zM268 462q0 35 -17 56.5t-46 21.5q-31 0 -49 -20.5t-18 -57.5q0 -35 17.5 -56.5t46.5 -21.5q30 0 48 20.5t18 57.5zM355 116h-303v106h303v-106z"/>
<glyph glyph-name="guillemotright" horiz-adv-x="537" unicode="»" d="M392 75h-148l110 194l-110 194h148l116 -191v-6zM178 75h-148l110 194l-110 194h148l116 -191v-6z"/>
<glyph glyph-name="onequarter" horiz-adv-x="871" unicode="¼" d="M691 184v103h-1l-70 -103h71zM281 239h-118v318l-103 -23h-2v111l221 49h2v-455zM349 0h-134l327 682h134zM856 92h-51v-92h-118v92h-173v90l194 273h97v-271h51v-92z"/>
<glyph glyph-name="onehalf" horiz-adv-x="917" unicode="½" d="M349 0h-134l327 682h134zM281 239h-118v318l-103 -23h-2v111l221 49h2v-455zM901 0h-329v87q97 76 130.5 122t33.5 85q0 28 -15.5 44t-42.5 16q-45 0 -95 -43h-2v110q58 34 121 34q67 0 111.5 -38t44.5 -108q0 -43 -17 -81t-35.5 -60t-62.5 -67v-1h158v-100z"/>
<glyph glyph-name="threequarters" horiz-adv-x="887" unicode="¾" d="M708 184v103h-1l-70 -103h71zM346 353q0 -59 -42 -92.5t-116 -33.5q-77 0 -138 33v110h3q21 -18 53.5 -30.5t59.5 -12.5q28 0 44 11t16 32q0 39 -57 39h-69v101h66q32 12 32 41q0 20 -14 31t-39 11q-48 0 -90 -42h-2v111q54 32 121 32q66 0 106.5 -33t40.5 -89 q0 -71 -65 -104v-1q42 -9 66 -39t24 -75zM365 0h-134l327 682h134zM873 92h-51v-92h-118v92h-173v90l194 273h97v-271h51v-92z"/>
<glyph glyph-name="questiondown" horiz-adv-x="470" unicode="¿" d="M335 360h-154v154h154v-154zM433 -193q-75 -50 -175 -50q-95 0 -153.5 51.5t-58.5 140.5q0 65 33 139t109 195h139v-5q-63 -132 -83.5 -185.5t-20.5 -98.5q0 -47 24 -70.5t65 -23.5q69 0 117 65h4v-158z"/>
<glyph glyph-name="Agrave" horiz-adv-x="707" unicode="À" d="M411 299l-61 178h-1l-61 -178h123zM697 0h-188l-51 149h-217l-50 -149h-181l266 700h2l-84 100h165l61 -100h10z"/>
<glyph glyph-name="Aacute" horiz-adv-x="707" unicode="Á" d="M411 299l-61 178h-1l-61 -178h123zM697 0h-188l-51 149h-217l-50 -149h-181l266 700h11l61 100h165l-85 -100h2z"/>
<glyph glyph-name="Acircumflex" horiz-adv-x="707" unicode="Â" d="M352 733l-33 -33h67l-33 33h-1zM411 299l-61 178h-1l-61 -178h123zM542 682h-105l260 -682h-188l-51 149h-217l-50 -149h-181l259 682h-105l116 128h146z"/>
<glyph glyph-name="Atilde" horiz-adv-x="707" unicode="Ã" d="M411 299l-61 178h-1l-61 -178h123zM697 0h-188l-51 149h-217l-50 -149h-181l266 700h106q-12 4 -31 11.5t-32 12t-23 4.5t-17 -5.5t-9.5 -12t-5.5 -19.5h-98q8 60 31 94.5t77 34.5q29 0 75 -19t61 -19t21.5 9t10.5 29h98q-8 -61 -31 -95t-76 -34z"/>
<glyph glyph-name="Adieresis" horiz-adv-x="707" unicode="Ä" d="M547 705h-156v115h156v-115zM315 705h-157v115h157v-115zM411 299l-61 178h-1l-61 -178h123zM697 0h-188l-51 149h-217l-50 -149h-181l266 700h154z"/>
<glyph glyph-name="Aring" horiz-adv-x="707" unicode="Å" d="M394 779q0 30 -41 30q-19 0 -31 -8t-12 -22q0 -32 43 -32q41 0 41 32zM411 299l-61 178h-1l-61 -178h123zM490 779q0 -58 -59 -83l266 -696h-188l-51 149h-217l-50 -149h-181l264 694q-59 24 -59 85q0 47 38 71.5t101 24.5t99.5 -24.5t36.5 -71.5z"/>
<glyph glyph-name="AE" horiz-adv-x="940" unicode="Æ" d="M466 557l-84 -174h88v174h-4zM887 0h-417v229h-153l-109 -229h-198l340 682h511v-153h-220v-120h210v-152h-210v-104h246v-153z"/>
<glyph glyph-name="Ccedilla" horiz-adv-x="610" unicode="Ç" d="M463 -111q0 -36 -33.5 -59t-96.5 -23q-72 0 -116 17v72h3q36 -20 81 -20q33 0 33 16q0 11 -17 16t-60 7l20 76q-108 24 -173.5 115.5t-65.5 234.5q0 162 85 260.5t227 98.5q124 0 209 -60v-184h-4q-66 81 -172 81q-77 0 -122 -53t-45 -143q0 -89 45.5 -142.5t124.5 -53.5 q49 0 95.5 21.5t77.5 59.5h4v-184q-74 -51 -174 -58l-4 -19q78 -17 78 -76z"/>
<glyph glyph-name="Egrave" horiz-adv-x="556" unicode="È" d="M503 0h-417v682h136l-100 118h165l72 -118h118v-153h-220v-106h210v-153h-210v-117h246v-153z"/>
<glyph glyph-name="Eacute" horiz-adv-x="556" unicode="É" d="M503 0h-417v682h121l72 118h165l-100 -118h133v-153h-220v-106h210v-153h-210v-117h246v-153z"/>
<glyph glyph-name="Ecircumflex" horiz-adv-x="556" unicode="Ê" d="M277 733l-51 -51h104l-52 51h-1zM467 682h10v-153h-220v-106h210v-153h-210v-117h246v-153h-417v682h3l116 128h146z"/>
<glyph glyph-name="Edieresis" horiz-adv-x="556" unicode="Ë" d="M503 0h-417v682h391v-153h-220v-106h210v-153h-210v-117h246v-153zM472 705h-156v115h156v-115zM240 705h-157v115h157v-115z"/>
<glyph glyph-name="Igrave" horiz-adv-x="347" unicode="Ì" d="M243 682h14v-682h-171v682h20l-100 118h165z"/>
<glyph glyph-name="Iacute" horiz-adv-x="347" unicode="Í" d="M240 682h17v-682h-171v682h17l72 118h165z"/>
<glyph glyph-name="Icircumflex" horiz-adv-x="347" unicode="Î" d="M173 733l-51 -51h104l-52 51h-1zM363 682h-106v-682h-171v682h-101l116 128h146z"/>
<glyph glyph-name="Idieresis" horiz-adv-x="347" unicode="Ï" d="M368 705h-156v115h156v-115zM136 705h-157v115h157v-115zM257 0h-171v682h171v-682z"/>
<glyph glyph-name="Eth" horiz-adv-x="730" unicode="Ð" d="M519 341q0 88 -50.5 135.5t-130.5 47.5h-81v-110h138v-135h-138v-121h81q80 0 130.5 47t50.5 136zM692 341q0 -111 -48.5 -189.5t-125.5 -115t-174 -36.5h-258v279h-86v135h86v268h258q96 0 173.5 -36.5t126 -115t48.5 -189.5z"/>
<glyph glyph-name="Ntilde" horiz-adv-x="775" unicode="Ñ" d="M689 -6h-141l-290 368h-1v-362h-171v625l-35 50v7h174l292 -378h1v378h171v-688zM459 691q-29 0 -75.5 18.5t-60.5 18.5q-10 0 -17 -5.5t-9.5 -12t-5.5 -19.5h-98q8 60 31 94.5t77 34.5q29 0 75 -19t61 -19t21.5 9t10.5 29h98q-8 -61 -31 -95t-77 -34z"/>
<glyph glyph-name="Ograve" horiz-adv-x="762" unicode="Ò" d="M546 341q0 94 -44.5 147.5t-117.5 53.5q-75 0 -121 -52t-46 -149q0 -94 44 -148t118 -54t120.5 52.5t46.5 149.5zM724 341q0 -164 -95 -261.5t-250 -97.5q-150 0 -245.5 97.5t-95.5 261.5q0 142 72.5 235t196.5 117l-91 107h165l64 -105q125 -19 202 -113.5t77 -240.5z "/>
<glyph glyph-name="Oacute" horiz-adv-x="762" unicode="Ó" d="M546 341q0 94 -44.5 147.5t-117.5 53.5q-75 0 -121 -52t-46 -149q0 -94 44 -148t118 -54t120.5 52.5t46.5 149.5zM724 341q0 -164 -95 -261.5t-250 -97.5q-150 0 -245.5 97.5t-95.5 261.5q0 145 75 239t202 114l65 106h165l-91 -107q122 -22 196 -115.5t74 -236.5z"/>
<glyph glyph-name="Ocircumflex" horiz-adv-x="762" unicode="Ô" d="M384 700q10 0 32 -2l-35 35h-1l-35 -35q24 2 39 2zM546 341q0 94 -44.5 147.5t-117.5 53.5q-75 0 -121 -52t-46 -149q0 -94 44 -148t118 -54t120.5 52.5t46.5 149.5zM570 682h-70q103 -34 163.5 -123t60.5 -218q0 -164 -95 -261.5t-250 -97.5q-150 0 -245.5 97.5 t-95.5 261.5q0 129 60.5 218t164.5 123h-71l116 128h146z"/>
<glyph glyph-name="Otilde" horiz-adv-x="762" unicode="Õ" d="M330 728q-10 0 -17 -5.5t-9.5 -12t-5.5 -19.5q41 9 86 9q13 0 39 -2q-12 3 -45.5 16.5t-47.5 13.5zM546 341q0 94 -44.5 147.5t-117.5 53.5q-75 0 -121 -52t-46 -149q0 -94 44 -148t118 -54t120.5 52.5t46.5 149.5zM724 341q0 -164 -95 -261.5t-250 -97.5 q-150 0 -245.5 97.5t-95.5 261.5q0 139 69.5 231.5t188.5 118.5h-96q8 60 31 94.5t77 34.5q29 0 75 -19t61 -19t21.5 9t10.5 29h98q-8 -61 -30.5 -94.5t-75.5 -34.5q116 -26 186 -118.5t70 -231.5z"/>
<glyph glyph-name="Odieresis" horiz-adv-x="762" unicode="Ö" d="M546 341q0 94 -44.5 147.5t-117.5 53.5q-75 0 -121 -52t-46 -149q0 -94 44 -148t118 -54t120.5 52.5t46.5 149.5zM724 341q0 -164 -95 -261.5t-250 -97.5q-150 0 -245.5 97.5t-95.5 261.5t95.5 261.5t250.5 97.5q149 0 244.5 -97.5t95.5 -261.5zM575 705h-156v115h156 v-115zM343 705h-157v115h157v-115z"/>
<glyph glyph-name="multiply" d="M489 152l-85 -86l-134 134l-136 -134l-85 83l136 136l-135 133l85 86l135 -134l136 135l84 -84l-135 -136z" unicode="×"/>
<glyph glyph-name="Oslash" horiz-adv-x="762" unicode="Ø" d="M216 341q0 -56 17 -99l210 288q-28 11 -59 11q-74 0 -121 -52t-47 -148zM546 341q0 57 -17 100l-212 -289q29 -12 62 -12q74 0 120.5 52.5t46.5 148.5zM205 -18h-167l81 113q-81 97 -81 246q0 164 95.5 261.5t250.5 97.5q79 0 151 -32l23 32h166l-81 -114q81 -97 81 -245 q0 -164 -95 -261.5t-250 -97.5q-82 0 -152 31z"/>
<glyph glyph-name="Ugrave" horiz-adv-x="685" unicode="Ù" d="M343 -18q-126 0 -196.5 62t-70.5 179v459h171v-444q0 -98 92 -98q91 0 91 98v444h179v-459q0 -117 -70.5 -179t-195.5 -62zM407 682h-137l-100 118h165z"/>
<glyph glyph-name="Uacute" horiz-adv-x="685" unicode="Ú" d="M343 -18q-126 0 -196.5 62t-70.5 179v459h171v-444q0 -98 92 -98q91 0 91 98v444h179v-459q0 -117 -70.5 -179t-195.5 -62zM406 682h-137l72 118h165z"/>
<glyph glyph-name="Ucircumflex" horiz-adv-x="685" unicode="Û" d="M430 238v444h-40l-52 51h-1l-51 -51h-39v-444q0 -98 92 -98q91 0 91 98zM527 682h82v-459q0 -117 -70.5 -179t-195.5 -62q-126 0 -196.5 62t-70.5 179v459h73l116 128h146z"/>
<glyph glyph-name="Udieresis" horiz-adv-x="685" unicode="Ü" d="M343 -18q-126 0 -196.5 62t-70.5 179v459h171v-444q0 -98 92 -98q91 0 91 98v444h179v-459q0 -117 -70.5 -179t-195.5 -62zM532 705h-156v115h156v-115zM300 705h-157v115h157v-115z"/>
<glyph glyph-name="Yacute" horiz-adv-x="663" unicode="Ý" d="M400 682h-137l72 118h165zM418 0h-171v257l-240 425h203l119 -237h1l128 237h198l-238 -424v-258z"/>
<glyph glyph-name="Thorn" horiz-adv-x="632" unicode="Þ" d="M417 388q0 38 -25 59.5t-67 21.5h-68v-181q82 3 121 30t39 70zM589 404q0 -122 -80.5 -186.5t-251.5 -83.5v-134h-171v682h171v-60h85q110 0 178.5 -56t68.5 -162z"/>
<glyph glyph-name="germandbls" horiz-adv-x="720" unicode="ß" d="M471 -18q-107 0 -177 40v147h3q27 -28 72.5 -44t86.5 -16q64 0 64 37q0 18 -23 30t-56 22.5t-66 27t-56 52.5t-23 90q0 39 15 70.5t37 50t44 33.5t37 30t15 31q0 40 -89 40q-109 0 -109 -78v-545h-162v374h-59v5l59 135v52q0 90 71 140.5t205 50.5q255 0 255 -160 q0 -37 -16.5 -66t-40.5 -47t-47.5 -33t-40 -31t-16.5 -34t12.5 -30t32 -20t43.5 -15.5t48 -19t43.5 -28.5t32 -47t12.5 -71q0 -79 -52.5 -126t-154.5 -47z"/>
<glyph glyph-name="agrave" horiz-adv-x="591" unicode="à" d="M367 566h-138l-132 184h165zM362 148v32q-35 19 -83 19q-72 0 -72 -43q0 -20 18 -33t51 -13q54 0 86 38zM524 0h-158v36h-1q-61 -54 -143 -54q-74 0 -124 44.5t-50 123.5q0 77 50.5 123t141.5 46q68 0 122 -28v24q0 41 -33.5 61t-87.5 20q-91 0 -159 -63h-3v149 q83 50 196 50q112 0 180.5 -54.5t68.5 -169.5v-308z"/>
<glyph glyph-name="aacute" horiz-adv-x="591" unicode="á" d="M355 565h-138l111 185h159zM362 148v32q-35 19 -83 19q-72 0 -72 -43q0 -20 18 -33t51 -13q54 0 86 38zM524 0h-158v36h-1q-61 -54 -143 -54q-74 0 -124 44.5t-50 123.5q0 77 50.5 123t141.5 46q68 0 122 -28v24q0 41 -33.5 61t-87.5 20q-91 0 -159 -63h-3v149 q83 50 196 50q112 0 180.5 -54.5t68.5 -169.5v-308z"/>
<glyph glyph-name="acircumflex" horiz-adv-x="591" unicode="â" d="M497 566h-138l-69 88h-1l-68 -88h-138l141 187h132zM362 148v32q-35 19 -83 19q-72 0 -72 -43q0 -20 18 -33t51 -13q54 0 86 38zM524 0h-158v36h-1q-61 -54 -143 -54q-74 0 -124 44.5t-50 123.5q0 77 50.5 123t141.5 46q68 0 122 -28v24q0 41 -33.5 61t-87.5 20 q-91 0 -159 -63h-3v149q83 50 196 50q112 0 180.5 -54.5t68.5 -169.5v-308z"/>
<glyph glyph-name="atilde" horiz-adv-x="591" unicode="ã" d="M381 591q-34 0 -88.5 24t-72.5 24q-15 0 -22 -11t-13 -37h-98q9 74 33 116.5t79 42.5q34 0 88.5 -24t72.5 -24q15 0 22 11t13 37h98q-9 -74 -33 -116.5t-79 -42.5zM362 148v32q-35 19 -83 19q-72 0 -72 -43q0 -20 18 -33t51 -13q54 0 86 38zM524 0h-158v36h-1 q-61 -54 -143 -54q-74 0 -124 44.5t-50 123.5q0 77 50.5 123t141.5 46q68 0 122 -28v24q0 41 -33.5 61t-87.5 20q-91 0 -159 -63h-3v149q83 50 196 50q112 0 180.5 -54.5t68.5 -169.5v-308z"/>
<glyph glyph-name="adieresis" horiz-adv-x="591" unicode="ä" d="M484 616h-156v134h156v-134zM252 616h-157v134h157v-134zM362 148v32q-35 19 -83 19q-72 0 -72 -43q0 -20 18 -33t51 -13q54 0 86 38zM524 0h-158v36h-1q-61 -54 -143 -54q-74 0 -124 44.5t-50 123.5q0 77 50.5 123t141.5 46q68 0 122 -28v24q0 41 -33.5 61t-87.5 20 q-91 0 -159 -63h-3v149q83 50 196 50q112 0 180.5 -54.5t68.5 -169.5v-308z"/>
<glyph glyph-name="aring" horiz-adv-x="591" unicode="å" d="M337 676q0 32 -39 32q-41 0 -41 -32q0 -34 41 -34q39 0 39 34zM436 676q0 -49 -38.5 -74.5t-101.5 -25.5q-62 0 -99.5 25.5t-37.5 74.5q0 48 39 73.5t101 25.5t99.5 -25.5t37.5 -73.5zM362 148v32q-35 19 -83 19q-72 0 -72 -43q0 -20 18 -33t51 -13q54 0 86 38zM524 0 h-158v36h-1q-61 -54 -143 -54q-74 0 -124 44.5t-50 123.5q0 77 50.5 123t141.5 46q68 0 122 -28v24q0 41 -33.5 61t-87.5 20q-91 0 -159 -63h-3v149q83 50 196 50q112 0 180.5 -54.5t68.5 -169.5v-308z"/>
<glyph glyph-name="ae" horiz-adv-x="905" unicode="æ" d="M698 345q-5 29 -28 46.5t-58 17.5q-73 0 -88 -64h174zM277 110q55 0 94 41q-8 18 -8 29q-35 19 -80 19q-76 0 -76 -44q0 -20 18 -32.5t52 -12.5zM643 -18q-142 0 -220 83h-2q-83 -83 -199 -83q-74 0 -124 44.5t-50 123.5q0 77 50.5 123t141.5 46q68 0 122 -28v25 q0 40 -33.5 60t-87.5 20q-91 0 -159 -63h-3v149q83 50 196 50q109 0 173 -58h3q60 58 164 58q108 0 180 -66.5t72 -181.5q0 -43 -3 -61h-340q9 -51 48.5 -79t104.5 -28q94 0 162 61h4v-146q-78 -49 -200 -49z"/>
<glyph glyph-name="ccedilla" horiz-adv-x="475" unicode="ç" d="M391 -111q0 -36 -33.5 -59t-96.5 -23q-72 0 -116 17v72h3q36 -20 81 -20q33 0 33 16q0 11 -17 16t-60 7l20 77q-79 22 -127.5 91t-48.5 174q0 124 67.5 199.5t177.5 75.5q95 0 159 -46v-161h-3q-21 28 -53.5 45.5t-67.5 17.5q-50 0 -80 -36t-30 -96q0 -59 31.5 -95 t85.5 -36q33 0 65 18.5t52 46.5h3v-162q-51 -36 -118 -43l-5 -20q78 -17 78 -76z"/>
<glyph glyph-name="egrave" horiz-adv-x="581" unicode="è" d="M359 566h-138l-132 184h165zM373 345q-5 28 -27.5 46t-56.5 18q-75 0 -89 -64h173zM518 31q-77 -49 -199 -49q-130 0 -210 73.5t-80 201.5q0 125 69.5 200t191.5 75q108 0 180.5 -67t72.5 -182q0 -33 -3 -60h-340q9 -51 48.5 -79t104.5 -28q95 0 162 62h3v-147z"/>
<glyph glyph-name="eacute" horiz-adv-x="581" unicode="é" d="M373 345q-5 28 -27.5 46t-56.5 18q-75 0 -89 -64h173zM518 31q-77 -49 -199 -49q-130 0 -210 73.5t-80 201.5q0 125 69.5 200t191.5 75q108 0 180.5 -67t72.5 -182q0 -33 -3 -60h-340q9 -51 48.5 -79t104.5 -28q95 0 162 62h3v-147zM348 565h-138l111 185h159z"/>
<glyph glyph-name="ecircumflex" horiz-adv-x="581" unicode="ê" d="M373 345q-5 28 -27.5 46t-56.5 18q-75 0 -89 -64h173zM518 31q-77 -49 -199 -49q-130 0 -210 73.5t-80 201.5q0 125 69.5 200t191.5 75q108 0 180.5 -67t72.5 -182q0 -33 -3 -60h-340q9 -51 48.5 -79t104.5 -28q95 0 162 62h3v-147zM497 566h-138l-69 88h-1l-68 -88h-138 l141 187h132z"/>
<glyph glyph-name="edieresis" horiz-adv-x="581" unicode="ë" d="M373 345q-5 28 -27.5 46t-56.5 18q-75 0 -89 -64h173zM518 31q-77 -49 -199 -49q-130 0 -210 73.5t-80 201.5q0 125 69.5 200t191.5 75q108 0 180.5 -67t72.5 -182q0 -33 -3 -60h-340q9 -51 48.5 -79t104.5 -28q95 0 162 62h3v-147zM484 616h-156v134h156v-134zM252 616 h-157v134h157v-134z"/>
<glyph glyph-name="igrave" horiz-adv-x="311" unicode="ì" d="M219 566h-138l-132 184h165zM237 0h-162v514h162v-514z"/>
<glyph glyph-name="iacute" horiz-adv-x="311" unicode="í" d="M228 565h-138l111 185h159zM237 0h-162v514h162v-514z"/>
<glyph glyph-name="icircumflex" horiz-adv-x="311" unicode="î" d="M363 566h-138l-69 88h-1l-68 -88h-138l141 187h132zM237 0h-162v514h162v-514z"/>
<glyph glyph-name="idieresis" horiz-adv-x="311" unicode="ï" d="M350 616h-156v134h156v-134zM118 616h-157v134h157v-134zM237 0h-162v514h162v-514z"/>
<glyph glyph-name="eth" horiz-adv-x="618" unicode="ð" d="M419 253q0 60 -29 94.5t-79 34.5q-51 0 -81.5 -33.5t-30.5 -95.5q0 -60 29.5 -96t79.5 -36t80.5 35t30.5 97zM520 594l-81 -10l86 -138q65 -103 65 -192q0 -123 -77.5 -197.5t-204.5 -74.5q-124 0 -201.5 74.5t-77.5 197.5q0 98 52 168t144 82q34 6 56 6h8v1l-32 50 l-163 -20v133l86 11l-39 63v2h194l26 -43l159 20v-133z"/>
<glyph glyph-name="ntilde" horiz-adv-x="652" unicode="ñ" d="M418 591q-34 0 -88.5 24t-72.5 24q-15 0 -22 -11t-13 -37h-98q9 74 33 116.5t79 42.5q34 0 88.5 -24t72.5 -24q15 0 22 11t13 37h98q-9 -74 -33 -116.5t-79 -42.5zM582 0h-162v297q0 45 -23.5 68.5t-62.5 23.5q-57 0 -97 -51v-338h-162v514h161v-39h1q65 57 152 57 q82 0 137.5 -47t55.5 -136v-349z"/>
<glyph glyph-name="ograve" horiz-adv-x="619" unicode="ò" d="M380 566h-138l-132 184h165zM590 257q0 -125 -77.5 -200t-204.5 -75q-124 0 -201.5 75t-77.5 200t77 200t205 75q124 0 201.5 -75t77.5 -200zM419 257q0 62 -29.5 99t-78.5 37q-51 0 -81.5 -36t-30.5 -100q0 -63 29.5 -99.5t79.5 -36.5q51 0 81 35.5t30 100.5z"/>
<glyph glyph-name="oacute" horiz-adv-x="619" unicode="ó" d="M590 257q0 -125 -77.5 -200t-204.5 -75q-124 0 -201.5 75t-77.5 200t77 200t205 75q124 0 201.5 -75t77.5 -200zM419 257q0 62 -29.5 99t-78.5 37q-51 0 -81.5 -36t-30.5 -100q0 -63 29.5 -99.5t79.5 -36.5q51 0 81 35.5t30 100.5zM381 565h-138l111 185h159z"/>
<glyph glyph-name="ocircumflex" horiz-adv-x="619" unicode="ô" d="M590 257q0 -125 -77.5 -200t-204.5 -75q-124 0 -201.5 75t-77.5 200t77 200t205 75q124 0 201.5 -75t77.5 -200zM419 257q0 62 -29.5 99t-78.5 37q-51 0 -81.5 -36t-30.5 -100q0 -63 29.5 -99.5t79.5 -36.5q51 0 81 35.5t30 100.5zM516 566h-138l-69 88h-1l-68 -88h-138 l141 187h132z"/>
<glyph glyph-name="otilde" horiz-adv-x="619" unicode="õ" d="M400 591q-34 0 -88.5 24t-72.5 24q-15 0 -22 -11t-13 -37h-98q9 74 33 116.5t79 42.5q34 0 88.5 -24t72.5 -24q15 0 22 11t13 37h98q-9 -74 -33 -116.5t-79 -42.5zM590 257q0 -125 -77.5 -200t-204.5 -75q-124 0 -201.5 75t-77.5 200t77 200t205 75q124 0 201.5 -75 t77.5 -200zM419 257q0 62 -29.5 99t-78.5 37q-51 0 -81.5 -36t-30.5 -100q0 -63 29.5 -99.5t79.5 -36.5q51 0 81 35.5t30 100.5z"/>
<glyph glyph-name="odieresis" horiz-adv-x="619" unicode="ö" d="M590 257q0 -125 -77.5 -200t-204.5 -75q-124 0 -201.5 75t-77.5 200t77 200t205 75q124 0 201.5 -75t77.5 -200zM419 257q0 62 -29.5 99t-78.5 37q-51 0 -81.5 -36t-30.5 -100q0 -63 29.5 -99.5t79.5 -36.5q51 0 81 35.5t30 100.5zM503 616h-156v134h156v-134zM271 616 h-157v134h157v-134z"/>
<glyph glyph-name="divide" d="M343 406h-148v139h148v-139zM343 28h-148v139h148v-139zM502 226h-464v120h464v-120z" unicode="÷"/>
<glyph glyph-name="oslash" horiz-adv-x="618" unicode="ø" d="M419 257q0 27 -6 49l-138 -181q13 -4 33 -4q51 0 81 35.5t30 100.5zM199 257q0 -32 7 -54l140 184q-17 6 -35 6q-51 0 -81.5 -36t-30.5 -100zM188 -18h-159l63 89q-63 74 -63 186q0 125 77 200t205 75q59 0 108 -18l12 18h159l-63 -90q63 -74 63 -185q0 -125 -77.5 -200 t-204.5 -75q-60 0 -108 18z"/>
<glyph glyph-name="ugrave" horiz-adv-x="629" unicode="ù" d="M385 566h-138l-132 184h165zM562 514v-297q0 -110 -65.5 -172.5t-183.5 -62.5q-115 0 -180.5 62.5t-65.5 172.5v297h162v-298q0 -95 85 -95q40 0 63 24t23 71v298h162z"/>
<glyph glyph-name="uacute" horiz-adv-x="629" unicode="ú" d="M562 514v-297q0 -110 -65.5 -172.5t-183.5 -62.5q-115 0 -180.5 62.5t-65.5 172.5v297h162v-298q0 -95 85 -95q40 0 63 24t23 71v298h162zM380 565h-138l111 185h159z"/>
<glyph glyph-name="ucircumflex" horiz-adv-x="629" unicode="û" d="M562 514v-297q0 -110 -65.5 -172.5t-183.5 -62.5q-115 0 -180.5 62.5t-65.5 172.5v297h162v-298q0 -95 85 -95q40 0 63 24t23 71v298h162zM521 566h-138l-69 88h-1l-68 -88h-138l141 187h132z"/>
<glyph glyph-name="udieresis" horiz-adv-x="629" unicode="ü" d="M562 514v-297q0 -110 -65.5 -172.5t-183.5 -62.5q-115 0 -180.5 62.5t-65.5 172.5v297h162v-298q0 -95 85 -95q40 0 63 24t23 71v298h162zM508 616h-156v134h156v-134zM276 616h-157v134h157v-134z"/>
<glyph glyph-name="yacute" horiz-adv-x="595" unicode="ý" d="M372 565h-138l111 185h159zM321 -193h-181l80 194l-213 513h185l110 -308h1l100 308h181z"/>
<glyph glyph-name="thorn" horiz-adv-x="642" unicode="þ" d="M609 257q0 -127 -65.5 -201t-169.5 -74q-82 0 -136 39h-1v-214h-162v943h162v-274h1q66 56 149 56q100 0 161 -75t61 -200zM440 257q0 62 -30 97t-77 35q-56 0 -96 -51v-168q39 -45 93 -45q49 0 79.5 34.5t30.5 97.5z"/>
<glyph glyph-name="OE" horiz-adv-x="949" unicode="Œ" d="M480 177v327q-42 37 -96 37q-75 0 -121.5 -51.5t-46.5 -148.5q0 -94 45 -147.5t118 -53.5q59 0 101 37zM897 0h-390v25q-60 -43 -154 -43q-134 0 -224.5 98t-90.5 261t90.5 261t229.5 98q91 0 149 -43v25h364v-153h-220v-107h210v-152h-210v-117h246v-153z"/>
<glyph glyph-name="oe" horiz-adv-x="964" unicode="œ" d="M757 345q-5 28 -28 46t-58 18q-34 0 -57.5 -17t-30.5 -47h174zM419 257q0 62 -29.5 99t-78.5 37q-51 0 -81.5 -36t-30.5 -100q0 -62 29.5 -99t79.5 -37t80.5 36t30.5 100zM902 31q-78 -49 -200 -49q-136 0 -204 80h-1q-66 -80 -189 -80q-124 0 -201.5 75t-77.5 200 t77 200t205 75q114 0 182 -75h1q57 75 180 75q108 0 180 -66.5t72 -181.5q0 -34 -3 -61h-340q20 -107 153 -107q96 0 162 61h4v-146z"/>
<glyph glyph-name="Scaron" horiz-adv-x="557" unicode="Š" d="M514 198q0 -95 -65 -155.5t-180 -60.5q-121 0 -209 55v168h3q36 -36 89.5 -56.5t102.5 -20.5q88 0 88 57q0 27 -29 47t-70 36.5t-82 39t-70 67t-29 108.5q0 73 37 129t113 77l-106 118h137l52 -51h1l51 51h137l-105 -116q64 -14 110 -46v-168h-3q-72 76 -175 76 q-77 0 -77 -53q0 -23 20.5 -41.5t51.5 -30t67.5 -30.5t67.5 -41t51.5 -63t20.5 -96z"/>
<glyph glyph-name="scaron" horiz-adv-x="490" unicode="š" d="M440 154q0 -79 -52.5 -125.5t-155.5 -46.5q-106 0 -176 40v149h3q28 -29 73 -45.5t88 -16.5q63 0 63 35q0 13 -12.5 22t-32.5 16t-44 15t-47.5 20.5t-43.5 30t-32.5 47t-12.5 68.5q0 79 50.5 124t144.5 45q101 0 169 -41v-148h-3q-29 28 -70 45t-80 17q-51 0 -51 -34 q0 -17 23 -28t55.5 -22t65 -27t55.5 -52t23 -88zM310 562h-132l-141 188h138l69 -88h1l68 88h138z"/>
<glyph glyph-name="Ydieresis" horiz-adv-x="663" unicode="Ÿ" d="M528 705h-156v115h156v-115zM296 705h-157v115h157v-115zM418 0h-171v257l-240 425h203l119 -237h1l128 237h198l-238 -424v-258z"/>
<glyph glyph-name="Alpha" horiz-adv-x="707" unicode="Α" d="M411 299l-61 178h-1l-61 -178h123zM697 0h-188l-51 149h-217l-50 -149h-181l266 700h154z"/>
<glyph glyph-name="Beta" horiz-adv-x="649" unicode="Β" d="M390 477q0 26 -19.5 42t-52.5 16h-61v-121h79q54 18 54 63zM431 212q0 29 -21.5 44.5t-58.5 15.5h-94v-125h90q84 0 84 65zM603 184q0 -184 -245 -184h-272v682h263q98 0 156.5 -45.5t58.5 -128.5q0 -103 -95 -157v-1q56 -13 95 -56t39 -110z"/>
<glyph glyph-name="Gamma" horiz-adv-x="513" unicode="Γ" d="M257 0h-171v682h397v-164h-226v-518z"/>
<glyph glyph-name="uni0394" horiz-adv-x="707" unicode="Δ" d="M460 154l-110 326h-1l-111 -326h222zM697 0h-687l266 700h154z"/>
<glyph glyph-name="Epsilon" horiz-adv-x="556" unicode="Ε" d="M503 0h-417v682h391v-153h-220v-106h210v-153h-210v-117h246v-153z"/>
<glyph glyph-name="Zeta" horiz-adv-x="673" unicode="Ζ" d="M622 0h-573v10l268 505v1h-246v166h529v-10l-268 -505v-1h290v-166z"/>
<glyph glyph-name="Eta" horiz-adv-x="768" unicode="Η" d="M682 0h-171v270h-254v-270h-171v682h171v-246h254v246h171v-682z"/>
<glyph glyph-name="Theta" horiz-adv-x="762" unicode="Θ" d="M486 271h-210v141h210v-141zM546 341q0 94 -44.5 147t-117.5 53q-74 0 -121 -52t-47 -148q0 -94 45 -147.5t118 -53.5q74 0 120.5 52.5t46.5 148.5zM724 341q0 -164 -95 -261.5t-250 -97.5q-150 0 -245.5 97t-95.5 262q0 164 95.5 261.5t250.5 97.5q149 0 244.5 -97.5 t95.5 -261.5z"/>
<glyph glyph-name="Iota" horiz-adv-x="343" unicode="Ι" d="M257 0h-171v682h171v-682z"/>
<glyph glyph-name="Kappa" horiz-adv-x="677" unicode="Κ" d="M657 0h-198l-192 343v6l182 333h195l-190 -333v-2zM257 0h-171v682h171v-682z"/>
<glyph glyph-name="Lambda" horiz-adv-x="690" unicode="Λ" d="M680 0h-191l-148 438h-1l-145 -438h-185l264 700h141z"/>
<glyph glyph-name="Mu" horiz-adv-x="891" unicode="Μ" d="M828 0h-172l-29 317h-1l-174 -335h-12l-177 336h-1l-27 -318h-172l60 688h139l183 -371h1l183 371h139z"/>
<glyph glyph-name="Nu" horiz-adv-x="775" unicode="Ν" d="M689 -6h-141l-290 368h-1v-362h-171v625l-35 50v7h174l292 -378h1v378h171v-688z"/>
<glyph glyph-name="Xi" horiz-adv-x="626" unicode="Ξ" d="M537 270h-448v153h448v-153zM553 529h-481v153h481v-153zM573 0h-520v153h520v-153z"/>
<glyph glyph-name="Omicron" horiz-adv-x="762" unicode="Ο" d="M546 341q0 94 -44.5 147t-117.5 53q-74 0 -121 -52t-47 -148q0 -94 45 -147.5t118 -53.5q74 0 120.5 52.5t46.5 148.5zM724 341q0 -164 -95 -261.5t-250 -97.5q-150 0 -245.5 97t-95.5 262q0 164 95.5 261.5t250.5 97.5q149 0 244.5 -97.5t95.5 -261.5z"/>
<glyph glyph-name="Pi" horiz-adv-x="755" unicode="Π" d="M669 0h-171v520h-241v-520h-171v682h583v-682z"/>
<glyph glyph-name="Rho" horiz-adv-x="632" unicode="Ρ" d="M417 448q0 38 -25 59.5t-67 21.5h-68v-181q82 3 121 30t39 70zM589 464q0 -120 -81.5 -185.5t-250.5 -83.5v-195h-171v682h256q109 0 178 -57t69 -161z"/>
<glyph glyph-name="Sigma" horiz-adv-x="605" unicode="Σ" d="M569 0h-549v10l212 341v1l-196 320v10h512v-158h-205v-1l101 -167v-11l-119 -186v-1h244v-158z"/>
<glyph glyph-name="Tau" horiz-adv-x="584" unicode="Τ" d="M378 0h-171v520h-177v162h524v-162h-176v-520z"/>
<glyph glyph-name="Upsilon" horiz-adv-x="663" unicode="Υ" d="M418 0h-171v257l-240 425h203l119 -237h1l128 237h198l-238 -424v-258z"/>
<glyph glyph-name="Phi" horiz-adv-x="856" unicode="Φ" d="M511 206q63 5 97.5 40.5t34.5 94.5q0 58 -34.5 93.5t-97.5 40.5v-269zM347 206v269q-65 -5 -99.5 -40.5t-34.5 -93.5q0 -59 34.5 -94.5t99.5 -40.5zM514 -5h-171v60q-142 10 -225 83t-83 203q0 129 82.5 201.5t225.5 83.5v61h171v-61q142 -11 225 -84t83 -201 q0 -129 -83 -202t-225 -84v-60z"/>
<glyph glyph-name="Chi" horiz-adv-x="721" unicode="Χ" d="M695 0h-205l-130 217h-1l-119 -217h-200l195 347l-209 335h204l127 -215h1l120 215h200l-195 -337z"/>
<glyph glyph-name="Psi" horiz-adv-x="843" unicode="Ψ" d="M506 0h-170v139q-146 11 -214.5 74.5t-68.5 195.5v273h170v-273q0 -54 26 -82.5t87 -35.5v391h170v-392q62 7 87.5 35t25.5 84v273h171v-273q0 -132 -68.5 -195.5t-215.5 -74.5v-139z"/>
<glyph glyph-name="alpha" horiz-adv-x="633" unicode="α" d="M558 0h-161v38h-1q-66 -56 -146 -56q-98 0 -157.5 75t-59.5 200q0 127 63.5 201t166.5 74q82 0 148 -51h1l143 45h3v-526zM396 176v167q-38 46 -89 46q-48 0 -76 -34.5t-28 -97.5t27.5 -97.5t73.5 -34.5q54 0 92 51z"/>
<glyph glyph-name="beta" horiz-adv-x="643" unicode="β" d="M443 224q0 90 -121 90h-43v143h57q59 27 59 85q0 33 -20.5 54.5t-55.5 21.5q-41 0 -59 -22.5t-18 -68.5v-357q38 -45 105 -45q41 0 68.5 25t27.5 74zM612 204q0 -99 -64 -160.5t-166 -61.5q-85 0 -139 39h-1v-164l-161 -50h-1v722q0 116 60 172t184 56q115 0 176 -50 t61 -137q0 -110 -98 -171v-1q65 -15 107 -62.5t42 -131.5z"/>
<glyph glyph-name="gamma" horiz-adv-x="575" unicode="γ" d="M356 -145l-156 -48h-2q0 99 -14.5 176t-58.5 202l-117 329h181l69 -215q7 -21 24 -81h1l15 48q55 161 100 248h176q-38 -70 -76 -152t-59 -132t-71 -172l-22 -57q10 -53 10 -146z"/>
<glyph glyph-name="delta" horiz-adv-x="605" unicode="δ" d="M406 240q0 89 -86 134l-18 10q-103 -51 -103 -144q0 -54 28.5 -86.5t75.5 -32.5q45 0 74 32.5t29 86.5zM576 241q0 -114 -76.5 -186.5t-198.5 -72.5q-118 0 -195 71.5t-77 181.5q0 73 33 126.5t112 106.5q-62 50 -62 129q0 74 52.5 117t157.5 43q99 0 187 -38v-151h-3 q-77 62 -162 62q-69 0 -69 -34q0 -15 17 -30t60 -38l40 -23q86 -45 135 -107.5t49 -156.5z"/>
<glyph glyph-name="epsilon" horiz-adv-x="500" unicode="ε" d="M34 141q0 48 27 84t73 49v1q-71 38 -71 116q0 67 53 104t156 37q112 0 177 -43v-145h-3q-47 61 -134 61q-72 0 -72 -40t57 -40h107v-127h-162q-37 -11 -37 -41q0 -48 90 -48q105 0 157 61h3v-144q-68 -44 -200 -44q-108 0 -164.5 42t-56.5 117z"/>
<glyph glyph-name="zeta" horiz-adv-x="489" unicode="ζ" d="M427 -142h-164q44 57 44 96q0 20 -11 31q-11 10 -48 15.5t-82 19.5t-78 46q-60 57 -60 161q0 91 47 174.5t160 207.5v1h-174v140h410v-120q-161 -160 -217 -238.5t-56 -149.5q0 -38 23 -65q19 -23 63 -32.5t90.5 -18t69.5 -29.5q28 -25 28 -79q0 -70 -45 -160z"/>
<glyph glyph-name="eta" horiz-adv-x="652" unicode="η" d="M582 -194h-162v491q0 45 -23.5 68.5t-62.5 23.5q-57 0 -97 -51v-338h-162v514h161v-39h1q65 57 152 57q82 0 137.5 -47t55.5 -136v-543z"/>
<glyph glyph-name="theta" horiz-adv-x="590" unicode="θ" d="M295 121q81 0 95 153h-189q14 -153 94 -153zM295 561q-82 0 -95 -155h190q-13 155 -95 155zM556 341q0 -176 -71.5 -267.5t-189.5 -91.5q-116 0 -188.5 92t-72.5 267q0 176 70.5 267.5t190.5 91.5q121 0 191 -91t70 -268z"/>
<glyph glyph-name="iota" horiz-adv-x="311" unicode="ι" d="M237 0h-162v514h162v-514z"/>
<glyph glyph-name="kappa" horiz-adv-x="609" unicode="κ" d="M595 0h-190l-160 258v4l152 252h186l-159 -252v-2zM237 0h-162v514h162v-514z"/>
<glyph glyph-name="lambda" horiz-adv-x="594" unicode="λ" d="M586 0h-182l-96 308h-1l-113 -308h-186l220 513q-59 147 -128 237h190q59 -90 112 -238z"/>
<glyph glyph-name="uni03BC" horiz-adv-x="644" unicode="μ" d="M570 0h-154v38h-1q-48 -56 -108 -56q-59 0 -88 38h-1q14 -99 19 -163l-161 -50h-1v707h162v-294q0 -48 23 -71.5t62 -23.5q66 0 86 67v322h162v-514z"/>
<glyph glyph-name="nu" horiz-adv-x="587" unicode="ν" d="M348 -18h-117l-223 532h185l106 -310h1q63 134 101 310h175q-49 -222 -228 -532z"/>
<glyph glyph-name="xi" horiz-adv-x="505" unicode="ξ" d="M442 -142h-164q45 57 45 96q0 21 -11 30q-12 11 -50 16.5t-84.5 19.5t-79.5 46q-60 58 -60 147q0 71 38 118.5t107 63.5v1q-48 24 -76.5 69.5t-28.5 104.5q0 87 59.5 137t163.5 50q103 0 179 -49v-157h-4q-61 68 -137 68q-39 0 -64.5 -19.5t-25.5 -58.5q0 -38 27 -61 t73 -23h83v-142h-159q-28 -10 -47 -32t-19 -52q0 -41 28 -62q32 -24 114.5 -36t109.5 -36q29 -26 29 -78q0 -76 -46 -161z"/>
<glyph glyph-name="omicron" horiz-adv-x="618" unicode="ο" d="M590 257q0 -125 -77.5 -200t-204.5 -75q-124 0 -201.5 75t-77.5 200t77 200t205 75q124 0 201.5 -75t77.5 -200zM419 257q0 62 -29.5 99t-78.5 37q-51 0 -81.5 -36t-30.5 -100q0 -63 29.5 -99.5t79.5 -36.5q51 0 81 35.5t30 100.5z"/>
<glyph glyph-name="pi" horiz-adv-x="713" unicode="π" d="M591 0h-162v374h-126q0 -164 -31 -374h-162q31 226 31 374h-129v5l59 135h615v-140h-95v-374z"/>
<glyph glyph-name="rho" horiz-adv-x="634" unicode="ρ" d="M432 257q0 64 -28.5 100.5t-75.5 36.5q-99 0 -99 -131v-93q39 -45 93 -45q50 0 80 34.5t30 97.5zM602 257q0 -127 -66 -201t-170 -74q-82 0 -136 39h-1v-214h-162v461q0 133 72 198.5t195 65.5q120 0 194 -73.5t74 -201.5z"/>
<glyph glyph-name="sigma1" horiz-adv-x="452" unicode="ς" d="M254 -14q-10 9 -42 17.5t-69.5 25.5t-63.5 48q-50 60 -50 176q0 129 66.5 204t176.5 75q78 0 145 -46v-160h-3q-44 62 -113 62q-45 0 -73.5 -36t-28.5 -95q0 -55 24 -85q25 -30 92 -43.5t88 -31.5q28 -25 28 -79q0 -71 -46 -160h-164q44 62 44 96q0 21 -11 32z"/>
<glyph glyph-name="sigma" horiz-adv-x="631" unicode="σ" d="M406 242q0 80 -77 132h-12q-53 0 -85.5 -33t-32.5 -96q0 -56 28 -90.5t77 -34.5q45 0 73.5 33t28.5 89zM574 224q0 -106 -76.5 -174t-196.5 -68q-119 0 -195.5 73t-76.5 190q0 128 77 198.5t211 70.5h288v-143h-95q64 -60 64 -147z"/>
<glyph glyph-name="tau" horiz-adv-x="481" unicode="τ" d="M321 0h-162v374h-136v140h435v-140h-137v-374z"/>
<glyph glyph-name="upsilon" horiz-adv-x="631" unicode="υ" d="M384 514h165q19 -138 19 -242q0 -135 -64 -212.5t-193 -77.5q-116 0 -178.5 63t-62.5 173v296h162v-297q0 -96 81 -96q93 0 93 145q0 111 -22 248z"/>
<glyph glyph-name="phi" horiz-adv-x="798" unicode="φ" d="M599 257q0 129 -123 137v-274q58 5 90.5 39t32.5 98zM768 257q0 -118 -77.5 -188.5t-210.5 -81.5v-180h-162v180q-134 11 -211.5 81.5t-77.5 188.5q0 119 75.5 189.5t213.5 81.5v222h162v-223q136 -11 212 -81t76 -189zM321 120v274q-57 -4 -89.5 -38t-32.5 -99 q0 -64 32.5 -98t89.5 -39z"/>
<glyph glyph-name="chi" horiz-adv-x="583" unicode="χ" d="M575 -193h-187l-98 234h-1l-94 -234h-183l164 351l-168 356h187l96 -235h1l97 235h184l-164 -356z"/>
<glyph glyph-name="psi" horiz-adv-x="849" unicode="ψ" d="M508 -193h-162v179q-144 12 -210 73.5t-66 177.5v277h162v-277q0 -53 26.5 -81t87.5 -33v627h162v-625q64 7 90 42t26 105q0 95 -20 242h162q20 -158 20 -242q0 -132 -66.5 -202.5t-211.5 -83.5v-179z"/>
<glyph glyph-name="endash" d="M530 202h-520v134h520v-134z" unicode="–"/>
<glyph glyph-name="emdash" horiz-adv-x="1080" unicode="—" d="M1070 202h-1060v134h1060v-134z"/>
<glyph glyph-name="quoteleft" horiz-adv-x="270" unicode="‘" d="M164 382h-151v5l82 295h148z"/>
<glyph glyph-name="quotesinglbase" horiz-adv-x="270" unicode="‚" d="M143 -138h-148l79 300h151v-5z"/>
<glyph glyph-name="quotedblleft" horiz-adv-x="496" unicode="“" d="M396 382h-151v5l82 295h148zM185 382h-151v5l82 295h148z"/>
<glyph glyph-name="quotedblright" horiz-adv-x="496" unicode="”" d="M394 382h-148l79 300h151v-5zM182 382h-148l79 300h151v-5z"/>
<glyph glyph-name="dagger" horiz-adv-x="568" unicode="†" d="M358 0h-148v412h-137v132h137v138h148v-138h137v-132h-137v-412z"/>
<glyph glyph-name="daggerdbl" horiz-adv-x="568" unicode="‡" d="M358 0h-148v138h-137v132h137v142h-137v132h137v138h148v-138h137v-132h-137v-142h137v-132h-137v-138z"/>
<glyph glyph-name="ellipsis" horiz-adv-x="1000" unicode="…" d="M895 0h-162v162h162v-162zM581 0h-162v162h162v-162zM267 0h-162v162h162v-162z"/>
<glyph glyph-name="perthousand" horiz-adv-x="1291" unicode="‰" d="M362 0h-134l327 682h134zM1160 222q0 71 -14.5 98.5t-41.5 27.5t-41.5 -27t-14.5 -99q0 -127 55 -127q57 0 57 127zM1281 222q0 -119 -50 -176.5t-128 -57.5q-77 0 -126.5 57.5t-49.5 176.5t49.5 176t126.5 57q78 0 128 -57t50 -176zM786 222q0 71 -14.5 98.5t-41.5 27.5 t-41.5 -27t-14.5 -99q0 -127 55 -127q57 0 57 127zM907 222q0 -119 -50 -176.5t-128 -57.5q-77 0 -126.5 57.5t-49.5 176.5t49.5 176t126.5 57q78 0 128 -57t50 -176zM243 461q0 71 -14.5 98.5t-41.5 27.5t-41.5 -27t-14.5 -99q0 -127 55 -127q57 0 57 127zM364 461 q0 -119 -50 -176.5t-128 -57.5q-77 0 -126.5 57.5t-49.5 176.5t49.5 176t126.5 57q78 0 128 -57t50 -176z"/>
<glyph glyph-name="guilsinglleft" horiz-adv-x="324" unicode="‹" d="M294 75h-148l-116 191v6l116 191h148l-110 -194z"/>
<glyph glyph-name="guilsinglright" horiz-adv-x="324" unicode="›" d="M178 75h-148l110 194l-110 194h148l116 -191v-6z"/>
<glyph glyph-name="fraction" horiz-adv-x="195" unicode="⁄" d="M1 0h-134l327 682h134z"/>
<glyph glyph-name="Euro" horiz-adv-x="555" unicode="€" d="M522 32q-72 -50 -164 -50q-201 0 -246 227h-77v113h65v19v23h-65v113h78q24 114 87.5 168.5t155.5 54.5q97 0 163 -50v-146h-4q-49 58 -125 58q-87 0 -113 -85h191v-113h-207v-24v-18h207v-113h-192q27 -89 114 -89q73 0 128 58h4v-146z"/>
<glyph glyph-name="trademark" horiz-adv-x="871" unicode="™" d="M833 286h-114l-14 172h-1l-94 -181h-8l-94 181h-1l-14 -172h-114l35 398h92l101 -203h1l97 203h93zM229 286h-113v287h-98v109h311v-109h-100v-287z"/>
<glyph glyph-name="arrowleft" horiz-adv-x="795" unicode="←" d="M357 51l-284 284v6l284 284h208l-215 -205h372v-164h-372l215 -205h-208z"/>
<glyph glyph-name="arrowup" horiz-adv-x="795" unicode="↑" d="M684 377v-207l-205 214v-372h-164v372l-205 -214v207l284 284h6z"/>
<glyph glyph-name="arrowright" horiz-adv-x="795" unicode="→" d="M438 51h-208l215 205h-372v164h372l-215 205h208l284 -284v-6z"/>
<glyph glyph-name="arrowdown" horiz-adv-x="795" unicode="↓" d="M684 297l-284 -285h-6l-284 285v206l205 -214v372h164v-372l205 214v-206z"/>
<glyph glyph-name="partialdiff" horiz-adv-x="588" unicode="∂" d="M209 209q0 -46 24.5 -69.5t66.5 -23.5t64.5 25t22.5 68q0 46 -24.5 70t-66.5 24t-64.5 -26t-22.5 -68zM38 209q0 87 50.5 144t128.5 68q22 2 33 2q4 0 11.5 -0.5t10.5 -0.5v2l-165 256v2h199l212 -336q39 -64 39 -137q0 -107 -71 -167t-189 -60q-115 0 -187 59.5 t-72 167.5z"/>
<glyph glyph-name="product" horiz-adv-x="768" unicode="∏" d="M682 -193h-171v704h-254v-704h-171v875h596v-875z"/>
<glyph glyph-name="summation" horiz-adv-x="648" unicode="∑" d="M603 -193h-572v10l257 433v1l-241 421v10h536v-171h-227v-1l146 -255v-10l-162 -266v-1h263v-171z"/>
<glyph glyph-name="minus" d="M502 226h-464v120h464v-120z" unicode="−"/>
<glyph glyph-name="radical" horiz-adv-x="694" unicode="√" d="M469 0h-246l-115 431h-88v125h232l98 -409h7l140 535h175z"/>
<glyph glyph-name="infinity" horiz-adv-x="711" unicode="∞" d="M197 217q48 0 81 70q-36 69 -81 69q-26 0 -41.5 -20t-15.5 -48q0 -31 15 -51t42 -20zM573 288q0 30 -15.5 48.5t-44.5 18.5q-25 0 -42 -18t-35 -51q32 -69 76 -69q29 0 45 19t16 52zM690 289q0 -90 -46.5 -142.5t-113.5 -52.5q-102 0 -170 113h-2q-65 -112 -170 -112 q-82 0 -124.5 53.5t-42.5 140.5q0 80 44.5 135t122.5 55q94 0 165 -113h2q39 57 74 85t90 28q82 0 126.5 -53.5t44.5 -136.5z"/>
<glyph glyph-name="approxequal" d="M491 144q-50 -52 -115 -52q-38 0 -107 30.5t-102 30.5q-64 0 -118 -61v126q50 52 116 52q38 0 107 -30.5t101 -30.5q65 0 118 61v-126zM491 368q-50 -52 -115 -52q-38 0 -107 30.5t-102 30.5q-65 0 -118 -61v127q51 51 116 51q38 0 107 -30.5t101 -30.5q65 0 118 61v-126 z" unicode="≈"/>
<glyph glyph-name="notequal" d="M502 117h-226l-35 -83h-111l35 83h-127v117h178l45 106h-223v118h274l38 92h110l-37 -92h79v-118h-131l-44 -106h175v-117z" unicode="≠"/>
<glyph glyph-name="lessequal" d="M502 206l-464 120v121l464 120v-121l-300 -58v-2l300 -59v-121zM502 56h-464v119h464v-119z" unicode="≤"/>
<glyph glyph-name="greaterequal" d="M502 56h-464v119h464v-119zM502 326l-464 -120v121l301 59v2l-301 58v121l464 -120v-121z" unicode="≥"/>
<glyph glyph-name="lozenge" d="M386 289l-117 131l-116 -131l116 -131zM527 289l-258 -287l-256 287l256 286z" unicode="◊"/>
</font>
</defs>
</svg>
