<?xml version="1.0" encoding="UTF-8" standalone="no"?>
<!DOCTYPE svg  PUBLIC '-//W3C//DTD SVG 1.1//EN'  'http://www.w3.org/Graphics/SVG/1.1/DTD/svg11.dtd'>
<svg xmlns="http://www.w3.org/2000/svg">
<defs>
<font id="YSLsansC-Heavy" horiz-adv-x="600">
<font-face underline-position="47" font-weight="850" descent="-200" panose-1="2 11 8 3 5 6 3 6 2 4" units-per-em="1000" unicode-range="U+0020-25CA" bbox="-131 -240 1333 882" x-height="517" underline-thickness="161" font-family="YSLsansC" ascent="800" cap-height="682"/>
<missing-glyph horiz-adv-x="1000"/>
<glyph glyph-name=".notdef" horiz-adv-x="1000"/>
<glyph glyph-name=".null" horiz-adv-x="0"/>
<glyph glyph-name=".null" horiz-adv-x="0"/>
<glyph glyph-name="nonmarkingreturn" horiz-adv-x="333"/>
<glyph glyph-name="space" horiz-adv-x="300" unicode=" "/>
<glyph glyph-name="space" horiz-adv-x="300" unicode=" "/>
<glyph glyph-name="exclam" horiz-adv-x="330" unicode="!" d="M256 0h-184v180h184v-180zM249 242h-168l-22 508h212z"/>
<glyph glyph-name="quotedbl" horiz-adv-x="522" unicode='&quot;' d="M461 355h-171l-3 327h177zM232 355h-171l-3 327h177z"/>
<glyph glyph-name="numbersign" horiz-adv-x="585" unicode="#" d="M316 295l11 93h-61l-11 -93h61zM436 183l-21 -183h-134l22 183h-61l-22 -183h-134l21 183h-81v112h94l12 93h-82v112h96l22 182h133l-22 -182h62l22 182h134l-22 -182h85v-112h-99l-12 -93h87v-112h-100z"/>
<glyph glyph-name="dollar" horiz-adv-x="541" unicode="$" d="M199 490q0 -18 26 -31v66q-26 -10 -26 -35zM347 195q0 18 -27 31v-68q27 10 27 37zM320 -142h-141v128q-80 9 -144 42v182h4q49 -43 140 -57v125q-141 60 -141 194q0 83 46 145.5t141 77.5v129h140v-131q65 -10 123 -39v-176h-4q-52 37 -119 49v-121q142 -62 142 -198 q0 -83 -49.5 -142t-137.5 -77v-131z"/>
<glyph glyph-name="percent" horiz-adv-x="956" unicode="%" d="M409 0h-166l305 682h166zM804 222q0 63 -10 84.5t-30 21.5q-21 0 -31 -21t-10 -85q0 -60 10 -84t30 -24q21 0 31 24t10 84zM948 222q0 -118 -52 -176t-133 -58q-80 0 -132 58t-52 176q0 119 52 176t132 57q81 0 133 -57t52 -176zM233 461q0 63 -10 84.5t-30 21.5 q-21 0 -31 -21t-10 -85q0 -60 10 -84t30 -24q21 0 31 24t10 84zM377 461q0 -118 -52 -176t-133 -58q-80 0 -132 58t-52 176q0 119 52 176t132 57q81 0 133 -57t52 -176z"/>
<glyph glyph-name="ampersand" horiz-adv-x="776" unicode="&amp;" d="M354 -18q-160 0 -240.5 54.5t-80.5 150.5q0 132 138 175v1q-97 48 -97 155q0 77 62 129.5t184 52.5q101 0 176 -31v-191h-4q-60 50 -139 50q-70 0 -70 -46q0 -21 14.5 -32.5t38.5 -11.5h32v-173h-76q-52 -13 -52 -53q0 -30 26.5 -44.5t87.5 -14.5q111 0 111 61 q0 45 -57 51v3l32 170h303v-173h-106v-1q35 -40 35 -90q0 -89 -78.5 -140.5t-239.5 -51.5z"/>
<glyph glyph-name="quotesingle" horiz-adv-x="300" unicode="&apos;" d="M236 355h-171l-3 327h177z"/>
<glyph glyph-name="parenleft" horiz-adv-x="394" unicode="(" d="M391 -142h-188q-72 85 -112 193.5t-40 227.5t40 227.5t112 193.5h188q-72 -85 -112 -193.5t-40 -227.5t40 -227.5t112 -193.5z"/>
<glyph glyph-name="parenright" horiz-adv-x="394" unicode=")" d="M191 -142h-188q153 179 153 421t-153 421h188q153 -179 153 -421t-153 -421z"/>
<glyph glyph-name="asterisk" horiz-adv-x="585" unicode="*" d="M496 276l-112 -93l-91 115l-92 -115l-112 93l91 112l-145 53l50 136l135 -50v155h145v-155l135 50l50 -136l-146 -53z"/>
<glyph glyph-name="plus" d="M373 52h-146v166h-168v143h167v169h145v-169h169v-143h-167v-166z" unicode="+"/>
<glyph glyph-name="comma" horiz-adv-x="299" unicode="," d="M180 -138h-179l82 327h182v-5z"/>
<glyph glyph-name="hyphen" horiz-adv-x="300" unicode="-" d="M287 181h-273v179h273v-179z"/>
<glyph glyph-name="period" horiz-adv-x="300" unicode="." d="M247 0h-193v189h193v-189z"/>
<glyph glyph-name="slash" horiz-adv-x="469" unicode="/" d="M189 0h-196l287 682h196z"/>
<glyph glyph-name="zero" horiz-adv-x="653" unicode="0" d="M413 341q0 98 -21 138t-65 40t-65 -40t-21 -138t21 -138t65 -40t65 40t21 138zM617 341q0 -183 -81.5 -271t-209.5 -88t-209.5 89t-81.5 270q0 183 82 271t210 88t209 -88.5t81 -270.5z"/>
<glyph glyph-name="one" horiz-adv-x="475" unicode="1" d="M396 0h-202v467l-160 -31h-3v189l362 75h3v-700z"/>
<glyph glyph-name="two" horiz-adv-x="585" unicode="2" d="M562 0h-516v151q144 110 192.5 178t48.5 121q0 36 -21 56.5t-57 20.5q-70 0 -146 -67h-3v189q92 51 191 51q105 0 175 -58t70 -167q0 -91 -37 -153t-125 -151v-1h228v-170z"/>
<glyph glyph-name="three" horiz-adv-x="558" unicode="3" d="M525 175q0 -90 -65.5 -141.5t-181.5 -51.5q-120 0 -218 49v189h4q32 -28 84 -47t92 -19q79 0 79 52q0 47 -72 47h-110v172h102q38 18 38 51q0 24 -19 37.5t-53 13.5q-72 0 -137 -65h-4v191q91 47 191 47q103 0 167 -51t64 -137q0 -105 -96 -159v-1q65 -15 100 -61 t35 -116z"/>
<glyph glyph-name="four" horiz-adv-x="585" unicode="4" d="M292 300v119h-1l-82 -118v-1h83zM561 142h-73v-142h-201v142h-256v158l289 400h168v-400h73v-158z"/>
<glyph glyph-name="five" horiz-adv-x="541" unicode="5" d="M510 222q0 -112 -71.5 -176t-189.5 -64q-111 0 -205 49v189h4q33 -29 80 -48t91 -19q39 0 62 17.5t23 49.5q0 33 -31 51t-87 18q-63 0 -130 -21h-3l65 414h369v-173h-226l-12 -64q15 3 34 3q99 0 163 -60.5t64 -165.5z"/>
<glyph glyph-name="six" horiz-adv-x="603" unicode="6" d="M366 214q0 33 -16 52.5t-46 19.5q-67 0 -67 -72q0 -33 16 -52.5t46 -19.5q31 0 49 18.5t18 53.5zM572 214q0 -110 -74 -171t-196 -61q-123 0 -196.5 61.5t-73.5 170.5q0 75 39 139l204 329h241v-2l-155 -243v-2q28 -2 55 -9q70 -19 113 -74.5t43 -137.5z"/>
<glyph glyph-name="seven" horiz-adv-x="585" unicode="7" d="M292 1h-220v2l226 492v1h-267v187h554v-12z"/>
<glyph glyph-name="eight" horiz-adv-x="599" unicode="8" d="M355 484q0 25 -14 40.5t-41 15.5q-28 0 -42.5 -15.5t-14.5 -40.5t15 -41t42 -16q26 0 40.5 16t14.5 41zM362 207q0 29 -16 46.5t-46 17.5q-31 0 -47.5 -17.5t-16.5 -46.5t16.5 -47t47.5 -18q30 0 46 18t16 47zM568 195q0 -100 -72.5 -156.5t-195.5 -56.5 q-124 0 -196.5 56.5t-72.5 156.5q0 116 98 170v1q-72 49 -72 143q0 89 66 140t177 51t176.5 -51t65.5 -140q0 -93 -72 -143v-1q98 -54 98 -170z"/>
<glyph glyph-name="nine" horiz-adv-x="603" unicode="9" d="M367 468q0 33 -16 52.5t-46 19.5q-31 0 -49 -18.5t-18 -53.5q0 -33 15.5 -52.5t46.5 -19.5q67 0 67 72zM328 0h-240v2l155 243v2q-28 2 -55 9q-70 19 -113 74.5t-43 137.5q0 110 74 171t196 61t196 -61.5t74 -170.5q0 -75 -45 -149z"/>
<glyph glyph-name="colon" horiz-adv-x="300" unicode=":" d="M247 328h-193v189h193v-189zM247 0h-193v189h193v-189z"/>
<glyph glyph-name="semicolon" horiz-adv-x="300" unicode=";" d="M163 -138h-179l82 327h182v-5zM247 328h-193v189h193v-189z"/>
<glyph glyph-name="less" d="M540 50l-481 169v141l481 169v-166l-273 -71v-2l273 -74v-166z" unicode="&lt;"/>
<glyph glyph-name="equal" d="M540 336h-481v142h481v-142zM540 105h-481v140h481v-140z" unicode="="/>
<glyph glyph-name="greater" d="M540 219l-481 -169v166l273 74v2l-273 71v166l481 -169v-141z" unicode="&gt;"/>
<glyph glyph-name="question" horiz-adv-x="489" unicode="?" d="M323 0h-183v180h183v-180zM316 242h-168v5q58 124 76 171.5t18 87.5q0 39 -21 59t-59 20q-67 0 -116 -64h-4v188q82 48 187 48q102 0 164 -53.5t62 -142.5q0 -64 -32.5 -136t-106.5 -183z"/>
<glyph glyph-name="at" horiz-adv-x="919" unicode="@" d="M747 313q0 109 -59 176v-301q24 0 41.5 32.5t17.5 92.5zM461 200q34 0 54 31v87q-22 28 -53 28q-27 0 -43 -18.5t-16 -54.5t16 -54.5t42 -18.5zM505 -160q-220 0 -345.5 114t-125.5 317q0 194 115.5 311.5t309.5 117.5q186 0 306 -100.5t120 -275.5q0 -132 -60.5 -198 t-172.5 -66h-125v30h-1q-54 -46 -121 -46q-81 0 -130.5 63.5t-49.5 165.5q0 105 53 166.5t138 61.5q69 0 126 -43h1l136 40h1q-75 75 -216 75q-132 0 -210 -81.5t-78 -220.5q0 -138 87 -216.5t251 -78.5q176 0 284 66h4v-148q-119 -54 -297 -54z"/>
<glyph glyph-name="A" horiz-adv-x="724" unicode="A" d="M399 308l-41 132h-1l-41 -132h83zM717 0h-227l-39 127h-186l-39 -127h-219l261 700h188z"/>
<glyph glyph-name="B" horiz-adv-x="665" unicode="B" d="M379 469q0 16 -12.5 26t-32.5 10h-47v-77h56q36 16 36 41zM420 219q0 39 -52 39h-81v-81h81q52 0 52 42zM627 184q0 -184 -245 -184h-302v682h293q98 0 156.5 -45.5t58.5 -128.5q0 -105 -98 -157v-1q59 -13 98 -55.5t39 -110.5z"/>
<glyph glyph-name="C" horiz-adv-x="608" unicode="C" d="M565 251v-215q-92 -54 -211 -54q-141 0 -230.5 96t-89.5 263q0 160 85.5 259.5t230.5 99.5q122 0 211 -54v-215h-4q-64 72 -165 72q-67 0 -105 -44t-38 -119q0 -73 38 -117t108 -44q46 0 90.5 19.5t75.5 52.5h4z"/>
<glyph glyph-name="D" horiz-adv-x="739" unicode="D" d="M497 341q0 73 -41.5 112t-106.5 39h-62v-302h62q65 0 106.5 39t41.5 112zM705 341q0 -111 -48.5 -189.5t-125.5 -115t-174 -36.5h-277v682h277q96 0 173.5 -36.5t126 -115t48.5 -189.5z"/>
<glyph glyph-name="E" horiz-adv-x="562" unicode="E" d="M516 0h-436v682h410v-179h-203v-68h193v-180h-193v-76h229v-179z"/>
<glyph glyph-name="F" horiz-adv-x="531" unicode="F" d="M287 0h-207v682h410v-190h-203v-87h193v-190h-193v-215z"/>
<glyph glyph-name="G" horiz-adv-x="722" unicode="G" d="M375 -18q-153 0 -247 97.5t-94 261.5q0 159 93.5 259t261.5 100q132 0 245 -55v-199h-4q-88 73 -210 73q-87 0 -129 -50t-42 -135q0 -88 35.5 -132.5t89.5 -44.5q85 0 98 68h-136v6l51 170h298q3 -36 3 -81q0 -164 -83.5 -251t-229.5 -87z"/>
<glyph glyph-name="H" horiz-adv-x="775" unicode="H" d="M695 0h-207v254h-201v-254h-207v682h207v-231h201v231h207v-682z"/>
<glyph glyph-name="I" horiz-adv-x="367" unicode="I" d="M287 0h-207v682h207v-682z"/>
<glyph glyph-name="J" horiz-adv-x="474" unicode="J" d="M177 -18q-70 0 -126 27v197h4q32 -34 78 -34q65 0 65 72v241h-157v6l58 191h305v-481q0 -100 -53.5 -159.5t-173.5 -59.5z"/>
<glyph glyph-name="K" horiz-adv-x="707" unicode="K" d="M687 0h-235l-159 343v7l151 332h230l-160 -332v-2zM287 0h-207v682h207v-682z"/>
<glyph glyph-name="L" horiz-adv-x="534" unicode="L" d="M496 0h-416v682h207v-485h209v-197z"/>
<glyph glyph-name="M" horiz-adv-x="900" unicode="M" d="M846 0h-207l-24 262h-1l-157 -280h-14l-159 281h-1l-21 -263h-208l60 685h170l166 -311h1l165 311h170z"/>
<glyph glyph-name="N" horiz-adv-x="784" unicode="N" d="M703 -3h-171l-244 309h-1v-306h-207v619l-39 56v7h209l246 -319h1v319h206v-685z"/>
<glyph glyph-name="O" horiz-adv-x="771" unicode="O" d="M523 341q0 78 -36 123.5t-98 45.5q-64 0 -102 -43.5t-38 -125.5q0 -78 35.5 -123.5t98.5 -45.5q64 0 102 43.5t38 125.5zM737 341q0 -162 -96 -260.5t-258 -98.5q-156 0 -252.5 98t-96.5 261t96.5 261t258.5 98q155 0 251.5 -98.5t96.5 -260.5z"/>
<glyph glyph-name="P" horiz-adv-x="652" unicode="P" d="M406 441q0 28 -17.5 43.5t-46.5 15.5h-55v-133q59 1 89 21t30 53zM613 460q0 -124 -81.5 -189t-244.5 -86v-185h-207v682h284q111 0 180 -58.5t69 -163.5z"/>
<glyph glyph-name="Q" horiz-adv-x="771" unicode="Q" d="M523 341q0 78 -36 123.5t-98 45.5q-64 0 -102 -43.5t-38 -125.5q0 -78 35.5 -123.5t98.5 -45.5q64 0 102 43.5t38 125.5zM737 341q0 -128 -61 -217.5t-168 -123.5l156 -193h-236l-121 182q-124 22 -198.5 116t-74.5 236q0 163 96.5 261t258.5 98q155 0 251.5 -98.5 t96.5 -260.5z"/>
<glyph glyph-name="R" horiz-adv-x="704" unicode="R" d="M684 0h-236l-155 330v7q137 24 137 96q0 33 -22.5 51.5t-61.5 18.5h-59v-503h-207v682h308q113 0 181 -55.5t68 -163.5q0 -67 -21.5 -112.5t-68.5 -81.5v-2z"/>
<glyph glyph-name="S" horiz-adv-x="564" unicode="S" d="M528 208q0 -99 -68.5 -162.5t-188.5 -63.5q-121 0 -216 50v193h3q36 -33 92 -51.5t103 -18.5q69 0 69 39q0 17 -19.5 30.5t-49 23.5t-63.5 27.5t-63.5 39.5t-49 62.5t-19.5 93.5q0 45 13.5 84.5t41.5 72.5t76.5 52.5t113.5 19.5q116 0 201 -50v-193h-3q-75 69 -177 69 q-58 0 -58 -36q0 -17 19.5 -31t48.5 -24t63 -28t63 -40t48.5 -63.5t19.5 -95.5z"/>
<glyph glyph-name="T" horiz-adv-x="606" unicode="T" d="M407 0h-207v485h-170v197h546v-197h-169v-485z"/>
<glyph glyph-name="U" horiz-adv-x="699" unicode="U" d="M350 -18q-133 0 -206.5 64t-73.5 184v452h207v-436q0 -74 67 -74t67 74v436h218v-452q0 -120 -74 -184t-205 -64z"/>
<glyph glyph-name="V" horiz-adv-x="703" unicode="V" d="M438 -18h-172l-259 700h227l122 -396h1l121 396h218z"/>
<glyph glyph-name="W" horiz-adv-x="1034" unicode="W" d="M788 -18h-172l-98 280h-1l-99 -280h-171l-238 700h225l112 -377h1l71 252l-37 125h211l108 -377h1l107 377h217z"/>
<glyph glyph-name="X" horiz-adv-x="747" unicode="X" d="M724 0h-247l-103 190h-1l-94 -190h-241l185 346l-200 336h245l102 -189h1l96 189h240l-185 -336z"/>
<glyph glyph-name="Y" horiz-adv-x="694" unicode="Y" d="M451 0h-206v247l-239 435h246l92 -201h1l104 201h239l-237 -435v-247z"/>
<glyph glyph-name="Z" horiz-adv-x="690" unicode="Z" d="M641 0h-593v12l234 465v1h-214v204h551v-12l-234 -465v-1h256v-204z"/>
<glyph glyph-name="bracketleft" horiz-adv-x="392" unicode="[" d="M356 -142h-286v842h286v-159h-107v-524h107v-159z"/>
<glyph glyph-name="backslash" horiz-adv-x="469" unicode="\" d="M476 0h-196l-287 682h196z"/>
<glyph glyph-name="bracketright" horiz-adv-x="392" unicode="]" d="M36 700h285v-842h-285v159h106v524h-106v159z"/>
<glyph glyph-name="asciicircum" d="M539 201h-167l-72 245h-2l-73 -245h-166l170 429h140z" unicode="^"/>
<glyph glyph-name="underscore" d="M590 -193h-580v161h580v-161z" unicode="_"/>
<glyph glyph-name="a" horiz-adv-x="612" unicode="a" d="M355 158v17q-28 13 -65 13q-54 0 -54 -28q0 -29 51 -29q43 0 68 27zM551 0h-191v34h-1q-63 -52 -140 -52q-73 0 -124 45.5t-51 126.5q0 77 50.5 123.5t142.5 46.5q70 0 118 -25v15q0 29 -32 44.5t-83 15.5q-96 0 -162 -58h-3v173q87 46 207 46q121 0 195 -56.5t74 -177.5 v-301z"/>
<glyph glyph-name="b" horiz-adv-x="662" unicode="b" d="M427 259q0 50 -23 77t-58 27q-48 0 -80 -46v-120q32 -43 78 -43q37 0 60 27t23 78zM632 259q0 -127 -65 -202t-167 -75q-87 0 -152 52h-1l-174 -49h-3v765h196v-269h1q65 54 146 54q99 0 159 -76t60 -200z"/>
<glyph glyph-name="c" horiz-adv-x="478" unicode="c" d="M441 212v-188q-68 -42 -162 -42q-110 0 -182 74.5t-72 202.5q0 122 69 199t182 77q94 0 162 -41v-189h-3q-19 24 -49.5 40t-61.5 16q-43 0 -68.5 -28t-25.5 -75q0 -45 26.5 -73.5t71.5 -28.5q30 0 60 15.5t50 40.5h3z"/>
<glyph glyph-name="d" horiz-adv-x="662" unicode="d" d="M396 200v120q-34 43 -78 43q-37 0 -60 -27t-23 -77t23 -77.5t58 -27.5q48 0 80 46zM592 0h-195v37h-1q-64 -55 -147 -55q-99 0 -159 76.5t-60 200.5q0 127 65 201.5t167 74.5q82 0 133 -37h1v252h196v-750z"/>
<glyph glyph-name="e" horiz-adv-x="596" unicode="e" d="M356 360q-12 39 -61 39q-52 0 -64 -39h125zM537 28q-81 -46 -209 -46q-137 0 -220 74.5t-83 202.5q0 124 71.5 200t201.5 76q113 0 188.5 -67t75.5 -186q0 -33 -3 -63h-328q24 -78 139 -78q96 0 164 57h3v-170z"/>
<glyph glyph-name="f" horiz-adv-x="407" unicode="f" d="M276 0h-196v349h-65v6l65 162v42q0 95 53.5 146.5t147.5 51.5q75 0 128 -25v-169h-4q-32 29 -75 29q-26 0 -40 -14t-14 -37v-24h110v-168h-110v-349z"/>
<glyph glyph-name="g" horiz-adv-x="655" unicode="g" d="M317 -200q-138 0 -220 46v177h4q74 -65 184 -65q51 0 80 19.5t29 53.5v24h-1q-62 -55 -150 -55q-91 0 -152 70t-61 198t64 197.5t167 69.5q85 0 152 -52h2l172 49h3v-486q0 -115 -76 -180.5t-197 -65.5zM394 207v123q-28 33 -69 33q-38 0 -62 -25t-24 -70q0 -44 24 -70 t60 -26q44 0 71 35z"/>
<glyph glyph-name="h" horiz-adv-x="662" unicode="h" d="M597 0h-196v289q0 36 -16.5 55t-45.5 19q-44 0 -73 -46v-317h-196v750h196v-269h1q62 54 144 54q79 0 132.5 -47t53.5 -136v-352z"/>
<glyph glyph-name="i" horiz-adv-x="335" unicode="i" d="M270 594h-204v156h204v-156zM266 0h-196v517h196v-517z"/>
<glyph glyph-name="j" horiz-adv-x="335" unicode="j" d="M270 594h-204v156h204v-156zM69 -193q-74 0 -125 25v152h4q31 -26 68 -26q54 0 54 60v499h196v-510q0 -102 -52 -151t-145 -49z"/>
<glyph glyph-name="k" horiz-adv-x="652" unicode="k" d="M641 0h-228l-142 259v5l134 253h223l-144 -253v-2zM266 0h-196v750h196v-750z"/>
<glyph glyph-name="l" horiz-adv-x="335" unicode="l" d="M266 0h-196v750h196v-750z"/>
<glyph glyph-name="m" horiz-adv-x="994" unicode="m" d="M929 0h-196v289q0 36 -16.5 55t-45.5 19q-44 0 -75 -48q1 -9 1 -28v-287h-196v289q0 36 -16.5 55t-45.5 19q-44 0 -73 -46v-317h-196v517h195v-37h1q61 55 147 55q103 0 153 -75h2q47 40 86 57.5t91 17.5q77 0 130.5 -47t53.5 -136v-352z"/>
<glyph glyph-name="n" horiz-adv-x="674" unicode="n" d="M609 0h-196v289q0 36 -18 55t-49 19q-49 0 -80 -46v-317h-196v517h195v-36h1q65 54 150 54q82 0 137.5 -47t55.5 -136v-352z"/>
<glyph glyph-name="o" horiz-adv-x="636" unicode="o" d="M611 259q0 -125 -80 -201t-215 -76q-131 0 -211 75.5t-80 201.5q0 125 80 200.5t215 75.5q130 0 210.5 -75.5t80.5 -200.5zM405 259q0 50 -22.5 80t-62.5 30q-41 0 -65.5 -29t-24.5 -81q0 -51 23 -81t63 -30q41 0 65 29t24 82z"/>
<glyph glyph-name="p" horiz-adv-x="662" unicode="p" d="M427 259q0 50 -23 77t-58 27q-48 0 -80 -46v-120q32 -43 78 -43q37 0 60 27t23 78zM632 259q0 -127 -65 -202t-167 -75q-82 0 -133 37h-1v-212h-196v710h195v-36h1q65 54 147 54q99 0 159 -76t60 -200z"/>
<glyph glyph-name="q" horiz-adv-x="662" unicode="q" d="M396 200v120q-34 43 -78 43q-37 0 -60 -27t-23 -77t23 -77.5t58 -27.5q48 0 80 46zM592 -193h-196v229h-1q-65 -54 -146 -54q-99 0 -159 76.5t-60 200.5q0 127 65 201.5t167 74.5q87 0 152 -52h1l174 49h3v-725z"/>
<glyph glyph-name="r" horiz-adv-x="454" unicode="r" d="M266 0h-196v517h187v-40h1q61 58 122 58q32 0 52 -10v-190h-4q-33 23 -68 23q-45 0 -94 -39v-319z"/>
<glyph glyph-name="s" horiz-adv-x="507" unicode="s" d="M462 163q0 -84 -55.5 -132.5t-166.5 -48.5q-106 0 -187 36v172h3q29 -27 76.5 -42.5t89.5 -15.5q50 0 50 21q0 11 -22.5 18t-54 16.5t-63.5 25.5t-54.5 53t-22.5 91q0 84 54 131t156 47q104 0 179 -36v-172h-3q-30 27 -73.5 42.5t-81.5 15.5t-38 -20q0 -11 22 -18.5 t53.5 -16.5t63 -25.5t53.5 -52.5t22 -89z"/>
<glyph glyph-name="t" horiz-adv-x="407" unicode="t" d="M276 0h-196v349h-66v6l66 162v152h196v-152h110v-168h-110v-349z"/>
<glyph glyph-name="u" horiz-adv-x="650" unicode="u" d="M589 517v-286q0 -115 -69.5 -182t-197.5 -67q-123 0 -192 66.5t-69 182.5v286h196v-290q0 -39 18 -59t49 -20t50 20t19 59v290h196z"/>
<glyph glyph-name="v" horiz-adv-x="627" unicode="v" d="M389 -18h-151l-231 535h222l85 -257h1l83 257h223z"/>
<glyph glyph-name="w" horiz-adv-x="910" unicode="w" d="M694 -18h-135l-102 174h-1l-105 -174h-135l-208 535h220l73 -218h1l145 236h18l143 -236h1l73 218h220z"/>
<glyph glyph-name="x" horiz-adv-x="627" unicode="x" d="M620 0h-228l-78 139h-1l-71 -139h-223l153 263l-165 254h228l77 -139h1l71 139h223l-153 -256z"/>
<glyph glyph-name="y" horiz-adv-x="627" unicode="y" d="M359 -193h-222l82 193l-213 517h225l85 -269h1l83 269h220z"/>
<glyph glyph-name="z" horiz-adv-x="550" unicode="z" d="M519 0h-504v12l176 336v1h-157v168h465v-12l-178 -336v-1h198v-168z"/>
<glyph glyph-name="braceleft" horiz-adv-x="422" unicode="{" d="M387 -142q-117 0 -178.5 25.5t-84 77.5t-22.5 149v91l-69 76v4l69 76v91q0 97 22.5 149t84 77.5t178.5 25.5v-159q-64 0 -85 -21.5t-21 -74.5v-92l-65 -74l65 -74v-92q0 -53 21 -74.5t85 -21.5v-159z"/>
<glyph glyph-name="bar" horiz-adv-x="300" unicode="|" d="M231 -190h-161v980h161v-980z"/>
<glyph glyph-name="braceright" horiz-adv-x="422" unicode="}" d="M34 700q117 0 179 -25.5t84.5 -77.5t22.5 -149v-91l69 -76v-4l-69 -76v-91q0 -97 -22.5 -149t-84.5 -77.5t-179 -25.5v159q65 0 86 21.5t21 74.5v92l65 74l-65 74v92q0 53 -21 74.5t-86 21.5v159z"/>
<glyph glyph-name="asciitilde" d="M526 245q-53 -51 -119 -51q-39 0 -109 31.5t-104 31.5q-63 0 -121 -63v151q53 50 119 50q40 0 110.5 -30.5t102.5 -30.5q67 0 121 61v-150z" unicode="~"/>
<glyph glyph-name="exclamdown" horiz-adv-x="330" unicode="¡" d="M258 338h-184v179h184v-179zM271 -233h-212l22 508h168z"/>
<glyph glyph-name="cent" horiz-adv-x="548" unicode="¢" d="M236 269q0 -83 61 -107v216q-61 -22 -61 -109zM437 -142h-140v125q-125 8 -195 82.5t-70 204.5q0 123 70 201t195 86v125h140v-140q42 -13 67 -28v-183h-4q-25 29 -63 43v-209q38 15 66 44h4v-183q-31 -18 -70 -29v-139z"/>
<glyph glyph-name="sterling" horiz-adv-x="585" unicode="£" d="M533 0h-489v170h81l-9 82h-72v156h56l-4 36q0 2 -1.5 19t-1.5 27q0 94 66.5 152t190.5 58q109 0 193 -46v-194h-4q-69 67 -156 67q-43 0 -64 -19.5t-21 -50.5q0 -3 0.5 -8.5t1.5 -12.5t1 -11l1 -17h178v-156h-162l9 -82h206v-170z"/>
<glyph glyph-name="currency" d="M353 294q0 24 -15.5 42.5t-38.5 18.5q-22 0 -37.5 -18.5t-15.5 -42.5q0 -23 15 -41t38 -18t38.5 18t15.5 41zM478 294q0 -32 -13 -63l68 -68l-102 -101l-69 68q-29 -13 -62 -13q-29 0 -64 13l-72 -70l-101 100l73 73q-12 33 -12 61q0 31 12 60l-72 73l103 102l70 -70 q31 13 63 13q31 0 64 -12l70 71l102 -103l-71 -68q13 -34 13 -66z" unicode="¤"/>
<glyph glyph-name="yen" horiz-adv-x="585" unicode="¥" d="M403 0h-201v130h-172v124h172v31h-172v124h117l-128 273h218l65 -209h1l58 209h207l-116 -273h105v-124h-154v-31h154v-124h-154v-130z"/>
<glyph glyph-name="brokenbar" horiz-adv-x="300" unicode="¦" d="M231 -190h-161v414h161v-414zM231 376h-161v414h161v-414z"/>
<glyph glyph-name="section" horiz-adv-x="585" unicode="§" d="M350 272q0 30 -14.5 48t-41.5 18q-61 0 -61 -66t56 -66q61 0 61 66zM556 272q0 -116 -87 -173v-1q32 -34 32 -79q0 -82 -56 -131t-166 -49q-109 0 -188 37v168h3q29 -26 76.5 -41t89.5 -15q50 0 50 24q0 12 -12 18.5t-42.5 13t-43.5 10.5q-86 18 -135 74t-49 144 q0 116 91 176v1q-26 33 -26 74q0 83 54 130t156 47q99 0 180 -36v-169h-3q-30 26 -74 41.5t-82 15.5t-38 -24q0 -5 2 -9t6 -6.5t8.5 -5t12 -4.5t13.5 -3.5t16 -3.5t17 -4q90 -15 142.5 -71.5t52.5 -148.5z"/>
<glyph glyph-name="copyright" horiz-adv-x="794" unicode="©" d="M391 76q116 0 187.5 68t71.5 198q0 122 -67 193t-179 71q-116 0 -188 -67.5t-72 -196.5q0 -123 67 -194.5t180 -71.5zM394 -18q-160 0 -260 98t-100 261t100 261t267 98q160 0 259.5 -98.5t99.5 -260.5t-99.5 -260.5t-266.5 -98.5zM405 137q-81 0 -132 54.5t-51 147.5 q0 90 48.5 146.5t132.5 56.5q64 0 120 -27v-137h-3q-36 34 -90 34q-33 0 -50.5 -19t-17.5 -54q0 -33 18 -53t52 -20q52 0 91 34h2v-136q-52 -27 -120 -27z"/>
<glyph glyph-name="ordfeminine" horiz-adv-x="407" unicode="ª" d="M228 395v14q-17 7 -36 7q-30 0 -30 -16q0 -15 27 -15q26 0 39 10zM366 295h-134v21h-1q-40 -33 -89 -33q-47 0 -81 30t-34 83q0 50 33 80.5t93 30.5q43 0 75 -16v8q0 34 -72 34q-60 0 -106 -36h-3v118q61 29 138 29q81 0 131 -37.5t50 -118.5v-193zM366 101h-323v127h323 v-127z"/>
<glyph glyph-name="guillemotleft" horiz-adv-x="570" unicode="«" d="M546 77h-179l-107 191v6l107 191h179l-101 -194zM311 77h-179l-107 191v6l107 191h179l-101 -194z"/>
<glyph glyph-name="logicalnot" d="M540 165h-145v162h-336v144h481v-306z" unicode="¬"/>
<glyph glyph-name="registered" horiz-adv-x="794" unicode="®" d="M391 76q122 0 190 71h-143l-68 189v4q62 12 62 47q0 30 -37 30h-28v-270h-134v385h190q65 0 104 -32t39 -95t-46 -102v-1l68 -148q62 70 62 188q0 122 -67 193t-179 71q-116 0 -188 -67.5t-72 -196.5q0 -123 67 -194.5t180 -71.5zM394 -18q-160 0 -260 98t-100 261 t100 261t267 98q160 0 259.5 -98.5t99.5 -260.5t-99.5 -260.5t-266.5 -98.5z"/>
<glyph glyph-name="degree" horiz-adv-x="395" unicode="°" d="M236 545q0 57 -37 57q-38 0 -38 -57q0 -58 37 -58q38 0 38 58zM364 545q0 -65 -43.5 -106t-122.5 -41q-78 0 -122.5 41t-44.5 106q0 64 44.5 105.5t123.5 41.5q77 0 121 -41.5t44 -105.5z"/>
<glyph glyph-name="plusminus" d="M371 213h-142v114h-170v141h168v118h143v-118h170v-141h-169v-114zM540 44h-481v143h481v-143z" unicode="±"/>
<glyph glyph-name="twosuperior" horiz-adv-x="385" unicode="²" d="M370 295h-339v106q151 114 151 184q0 21 -12.5 33t-33.5 12q-43 0 -94 -42h-2v130q64 32 125 32q69 0 115.5 -38t46.5 -108q0 -57 -22 -96t-75 -93v-1h140v-119z"/>
<glyph glyph-name="threesuperior" horiz-adv-x="385" unicode="³" d="M359 409q0 -58 -42.5 -92t-119.5 -34q-76 0 -145 32v130h3q21 -18 55 -30.5t60 -12.5q46 0 46 28q0 25 -40 25h-74v120h66q19 10 19 27q0 28 -40 28q-45 0 -90 -41h-2v130q60 31 126 31q68 0 110.5 -33.5t42.5 -89.5q0 -70 -64 -103q89 -20 89 -115z"/>
<glyph glyph-name="mu" horiz-adv-x="667" unicode="µ" d="M597 0h-186v37h-1q-16 -23 -42 -39t-53 -16q-44 0 -70 26h-2q11 -51 23 -146l-195 -55h-1v710h196v-284q0 -40 18 -59.5t48 -19.5q27 0 46 16.5t23 48.5v298h196v-517z"/>
<glyph glyph-name="paragraph" horiz-adv-x="646" unicode="¶" d="M562 -142h-197v328q-166 22 -246 84t-80 190q0 110 68.5 166t180.5 56h274v-824z"/>
<glyph glyph-name="onesuperior" horiz-adv-x="385" unicode="¹" d="M301 295h-141v293l-105 -19h-2v132l246 49h2v-455z"/>
<glyph glyph-name="ordmasculine" horiz-adv-x="418" unicode="º" d="M403 464q0 -81 -53 -131t-143 -50q-86 0 -139 50t-53 131t53 130.5t143 49.5q86 0 139 -49.5t53 -130.5zM259 464q0 26 -12.5 43t-35.5 17q-24 0 -38 -15.5t-14 -44.5q0 -27 12.5 -44t35.5 -17q52 0 52 61zM370 101h-323v127h323v-127z"/>
<glyph glyph-name="guillemotright" horiz-adv-x="570" unicode="»" d="M439 77h-179l101 194l-101 194h179l107 -191v-6zM204 77h-179l101 194l-101 194h179l107 -191v-6z"/>
<glyph glyph-name="onequarter" horiz-adv-x="913" unicode="¼" d="M397 0h-166l305 682h166zM301 239h-141v293l-105 -19h-2v132l246 49h2v-455zM715 200v62h-1l-41 -61v-1h42zM897 92h-45v-92h-141v92h-161v110l183 253h119v-255h45v-108z"/>
<glyph glyph-name="onehalf" horiz-adv-x="956" unicode="½" d="M397 0h-166l305 682h166zM301 239h-141v293l-105 -19h-2v132l246 49h2v-455zM941 0h-339v106q151 114 151 184q0 21 -12.5 33t-33.5 12q-43 0 -94 -42h-2v130q64 32 125 32q69 0 115.5 -38t46.5 -108q0 -57 -22 -96t-75 -93v-1h140v-119z"/>
<glyph glyph-name="threequarters" horiz-adv-x="926" unicode="¾" d="M728 200v62h-1l-41 -61v-1h42zM910 92h-45v-92h-141v92h-161v110l183 253h119v-255h45v-108zM359 353q0 -58 -42.5 -92t-119.5 -34q-76 0 -145 32v130h3q21 -18 55 -30.5t60 -12.5q46 0 46 28q0 25 -40 25h-74v120h66q19 10 19 27q0 28 -40 28q-45 0 -90 -41h-2v130 q60 31 126 31q68 0 110.5 -33.5t42.5 -89.5q0 -70 -64 -103q89 -20 89 -115zM410 0h-166l305 682h166z"/>
<glyph glyph-name="questiondown" horiz-adv-x="489" unicode="¿" d="M358 338h-183v179h183v-179zM456 -192q-82 -48 -187 -48q-102 0 -164 53.5t-62 142.5q0 64 32.5 136t106.5 183h168v-5q-58 -124 -76 -171.5t-18 -87.5q0 -39 21 -59t59 -20q67 0 116 64h4v-188z"/>
<glyph glyph-name="Agrave" horiz-adv-x="724" unicode="À" d="M399 308l-41 132h-1l-41 -132h83zM717 0h-227l-39 127h-186l-39 -127h-219l261 700h7l-86 100h198l58 -100h11z"/>
<glyph glyph-name="Aacute" horiz-adv-x="724" unicode="Á" d="M399 308l-41 132h-1l-41 -132h83zM717 0h-227l-39 127h-186l-39 -127h-219l261 700h11l59 100h198l-87 -100h7z"/>
<glyph glyph-name="Acircumflex" horiz-adv-x="724" unicode="Â" d="M361 723l-27 -23h55l-27 23h-1zM399 308l-41 132h-1l-41 -132h83zM575 682h-113l255 -682h-227l-39 127h-186l-39 -127h-219l254 682h-112l123 128h180z"/>
<glyph glyph-name="Atilde" horiz-adv-x="724" unicode="Ã" d="M307 720q-19 0 -26 -20h95q-60 20 -69 20zM399 308l-41 132h-1l-41 -132h83zM717 0h-227l-39 127h-186l-39 -127h-219l256 686h-100q8 139 114 139q31 0 78.5 -17t61.5 -17q24 0 28 34h116q-8 -131 -100 -139z"/>
<glyph glyph-name="Adieresis" horiz-adv-x="724" unicode="Ä" d="M399 308l-41 132h-1l-41 -132h83zM577 693h-119l259 -693h-227l-39 127h-186l-39 -127h-219l258 693h-119v133h187v-126h57v126h187v-133z"/>
<glyph glyph-name="Aring" horiz-adv-x="724" unicode="Å" d="M398 782q0 27 -36 27q-37 0 -37 -27t37 -27q36 0 36 27zM399 308l-41 132h-1l-41 -132h83zM511 782q0 -56 -55 -82l261 -700h-227l-39 127h-186l-39 -127h-219l260 698q-55 25 -55 84q0 49 41 74.5t111 25.5q69 0 108 -25.5t39 -74.5z"/>
<glyph glyph-name="AE" horiz-adv-x="950" unicode="Æ" d="M465 532l-60 -140h64v140h-4zM904 0h-435v210h-133l-86 -210h-240l314 682h554v-179h-203v-80h193v-179h-193v-65h229v-179z"/>
<glyph glyph-name="Ccedilla" horiz-adv-x="608" unicode="Ç" d="M471 -107q0 -37 -34.5 -61.5t-105.5 -24.5q-80 0 -126 16v81h3q40 -19 83 -19q26 0 26 10q0 13 -73 17l22 81q-106 28 -169 118.5t-63 229.5q0 160 85.5 259.5t230.5 99.5q122 0 211 -54v-215h-4q-64 72 -165 72q-67 0 -105 -44t-38 -119q0 -73 38 -117t108 -44 q46 0 90.5 19.5t75.5 52.5h4v-215q-71 -42 -164 -51l-4 -15q74 -20 74 -77z"/>
<glyph glyph-name="Egrave" horiz-adv-x="562" unicode="È" d="M516 0h-436v682h131l-102 118h198l69 -118h114v-179h-203v-68h193v-180h-193v-76h229v-179z"/>
<glyph glyph-name="Eacute" horiz-adv-x="562" unicode="É" d="M516 0h-436v682h116l69 118h198l-102 -118h129v-179h-203v-68h193v-180h-193v-76h229v-179z"/>
<glyph glyph-name="Ecircumflex" horiz-adv-x="562" unicode="Ê" d="M280 723l-48 -41h98l-49 41h-1zM494 682h-4v-179h-203v-68h193v-180h-193v-76h229v-179h-436v682h-12l123 128h180z"/>
<glyph glyph-name="Edieresis" horiz-adv-x="562" unicode="Ë" d="M516 0h-436v682h410v-179h-203v-68h193v-180h-193v-76h229v-179zM495 693h-187v133h187v-133zM251 693h-187v133h187v-133z"/>
<glyph glyph-name="Igrave" horiz-adv-x="371" unicode="Ì" d="M269 682h18v-682h-207v682h24l-102 118h198z"/>
<glyph glyph-name="Iacute" horiz-adv-x="371" unicode="Í" d="M266 682h21v-682h-207v682h21l69 118h198z"/>
<glyph glyph-name="Icircumflex" horiz-adv-x="371" unicode="Î" d="M185 723l-48 -41h98l-49 41h-1zM399 682h-112v-682h-207v682h-107l123 128h180z"/>
<glyph glyph-name="Idieresis" horiz-adv-x="371" unicode="Ï" d="M401 693h-187v133h187v-133zM157 693h-187v133h187v-133zM287 0h-207v682h207v-682z"/>
<glyph glyph-name="Eth" horiz-adv-x="739" unicode="Ð" d="M497 341q0 73 -41.5 112t-106.5 39h-62v-66h115v-162h-115v-74h62q65 0 106.5 39t41.5 112zM705 341q0 -111 -48.5 -189.5t-125.5 -115t-174 -36.5h-277v264h-80v162h80v256h277q96 0 173.5 -36.5t126 -115t48.5 -189.5z"/>
<glyph glyph-name="Ntilde" horiz-adv-x="784" unicode="Ñ" d="M703 -3h-171l-244 309h-1v-306h-207v619l-39 56v7h209l246 -319h1v319h206v-685zM468 686q-31 0 -78.5 17t-61.5 17q-24 0 -28 -34h-116q8 139 114 139q31 0 78.5 -17t61.5 -17q24 0 28 34h116q-4 -63 -28.5 -101t-85.5 -38z"/>
<glyph glyph-name="Ograve" horiz-adv-x="771" unicode="Ò" d="M523 341q0 78 -36 123.5t-98 45.5q-64 0 -102 -43.5t-38 -125.5q0 -78 35.5 -123.5t98.5 -45.5q64 0 102 43.5t38 125.5zM737 341q0 -162 -96 -260.5t-258 -98.5q-156 0 -252.5 98t-96.5 261q0 138 70 230.5t193 118.5l-94 110h198l62 -107q125 -23 199.5 -117t74.5 -235 z"/>
<glyph glyph-name="Oacute" horiz-adv-x="771" unicode="Ó" d="M523 341q0 78 -36 123.5t-98 45.5q-64 0 -102 -43.5t-38 -125.5q0 -78 35.5 -123.5t98.5 -45.5q64 0 102 43.5t38 125.5zM737 341q0 -162 -96 -260.5t-258 -98.5q-156 0 -252.5 98t-96.5 261q0 139 72.5 232.5t198.5 118.5l63 108h198l-94 -109q121 -25 193 -118.5 t72 -231.5z"/>
<glyph glyph-name="Ocircumflex" horiz-adv-x="771" unicode="Ô" d="M389 700q4 0 12 -0.5t12 -0.5l-28 24h-1l-28 -24q11 1 33 1zM523 341q0 78 -36 123.5t-98 45.5q-64 0 -102 -43.5t-38 -125.5q0 -78 35.5 -123.5t98.5 -45.5q64 0 102 43.5t38 125.5zM598 682h-89q105 -34 166.5 -124t61.5 -217q0 -162 -96 -260.5t-258 -98.5 q-156 0 -252.5 98t-96.5 261q0 128 61 217.5t169 123.5h-92l123 128h180z"/>
<glyph glyph-name="Otilde" horiz-adv-x="771" unicode="Õ" d="M339 720q-22 0 -27 -27q34 7 77 7q14 0 21 -1q-59 21 -71 21zM523 341q0 78 -36 123.5t-98 45.5q-64 0 -102 -43.5t-38 -125.5q0 -78 35.5 -123.5t98.5 -45.5q64 0 102 43.5t38 125.5zM737 341q0 -162 -96 -260.5t-258 -98.5q-156 0 -252.5 98t-96.5 261q0 132 65 223 t179 122h-83q8 139 114 139q31 0 78.5 -17t61.5 -17q24 0 28 34h116q-8 -131 -100 -139q112 -30 178 -121.5t66 -223.5z"/>
<glyph glyph-name="Odieresis" horiz-adv-x="771" unicode="Ö" d="M523 341q0 78 -36 123.5t-98 45.5q-64 0 -102 -43.5t-38 -125.5q0 -78 35.5 -123.5t98.5 -45.5q64 0 102 43.5t38 125.5zM737 341q0 -162 -96 -260.5t-258 -98.5q-156 0 -252.5 98t-96.5 261q0 141 73.5 235t201.5 117h-140v133h187v-127q11 1 33 1q4 0 12 -0.5t12 -0.5 v127h187v-133h-135q124 -24 198 -117.5t74 -234.5z"/>
<glyph glyph-name="multiply" d="M533 158l-102 -103l-132 132l-135 -133l-101 100l135 134l-134 132l103 103l132 -133l135 134l102 -101l-135 -135z" unicode="×"/>
<glyph glyph-name="Oslash" horiz-adv-x="771" unicode="Ø" d="M249 341q0 -37 7 -62l160 227q-14 3 -27 3q-64 0 -102 -43t-38 -125zM523 341q0 33 -8 63l-161 -229q13 -3 29 -3q64 0 102 43.5t38 125.5zM234 -18h-200l80 115q-80 96 -80 244q0 163 96.5 261t258.5 98q72 0 133 -23l16 23h199l-81 -117q81 -97 81 -242 q0 -163 -96 -261t-258 -98q-70 0 -134 22z"/>
<glyph glyph-name="Ugrave" horiz-adv-x="699" unicode="Ù" d="M411 246v436h-134v-436q0 -74 67 -74t67 74zM350 -18q-133 0 -206.5 64t-73.5 184v452h191l-102 118h198l69 -118h203v-452q0 -120 -74 -184t-205 -64z"/>
<glyph glyph-name="Uacute" horiz-adv-x="699" unicode="Ú" d="M411 246v436h-134v-436q0 -74 67 -74t67 74zM350 -18q-133 0 -206.5 64t-73.5 184v452h194l69 118h198l-102 -118h200v-452q0 -120 -74 -184t-205 -64z"/>
<glyph glyph-name="Ucircumflex" horiz-adv-x="699" unicode="Û" d="M411 246v436h-18l-49 41h-1l-48 -41h-18v-436q0 -74 67 -74t67 74zM557 682h72v-452q0 -120 -74 -184t-205 -64q-133 0 -206.5 64t-73.5 184v452h61l123 128h180z"/>
<glyph glyph-name="Udieresis" horiz-adv-x="699" unicode="Ü" d="M350 -18q-133 0 -206.5 64t-73.5 184v452h207v-436q0 -74 67 -74t67 74v436h218v-452q0 -120 -74 -184t-205 -64zM558 693h-187v133h187v-133zM314 693h-187v133h187v-133z"/>
<glyph glyph-name="Yacute" horiz-adv-x="694" unicode="Ý" d="M431 682h-165l69 118h198zM451 0h-206v247l-239 435h246l92 -201h1l104 201h239l-237 -435v-247z"/>
<glyph glyph-name="Thorn" horiz-adv-x="652" unicode="Þ" d="M406 381q0 28 -17.5 43.5t-46.5 15.5h-55v-133q59 1 89 21t30 53zM613 400q0 -129 -80 -191.5t-246 -83.5v-125h-207v682h207v-60h77q112 0 180.5 -56.5t68.5 -165.5z"/>
<glyph glyph-name="germandbls" horiz-adv-x="766" unicode="ß" d="M508 -18q-107 0 -188 36v171h3q29 -26 76.5 -41.5t89.5 -15.5q51 0 51 23q0 12 -22.5 20.5t-54.5 18t-64 26t-54.5 53.5t-22.5 92q0 46 20.5 81.5t44.5 53.5t44.5 36.5t20.5 33.5q0 29 -78 29q-48 0 -73 -15t-25 -52v-532h-196v349h-65v6l65 162v40q0 95 76.5 147.5 t223.5 52.5q280 0 280 -170q0 -35 -15 -64t-36.5 -47t-43 -33t-36.5 -29.5t-15 -28.5q0 -19 22 -30t54 -20t64 -24t54 -52t22 -94q0 -84 -56 -133.5t-166 -49.5z"/>
<glyph glyph-name="agrave" horiz-adv-x="612" unicode="à" d="M392 569h-165l-129 181h197zM355 158v17q-28 13 -65 13q-54 0 -54 -28q0 -29 51 -29q43 0 68 27zM551 0h-191v34h-1q-63 -52 -140 -52q-73 0 -124 45.5t-51 126.5q0 77 50.5 123.5t142.5 46.5q70 0 118 -25v15q0 29 -32 44.5t-83 15.5q-96 0 -162 -58h-3v173 q87 46 207 46q121 0 195 -56.5t74 -177.5v-301z"/>
<glyph glyph-name="aacute" horiz-adv-x="612" unicode="á" d="M378 569h-165l104 181h190zM355 158v17q-28 13 -65 13q-54 0 -54 -28q0 -29 51 -29q43 0 68 27zM551 0h-191v34h-1q-63 -52 -140 -52q-73 0 -124 45.5t-51 126.5q0 77 50.5 123.5t142.5 46.5q70 0 118 -25v15q0 29 -32 44.5t-83 15.5q-96 0 -162 -58h-3v173q87 46 207 46 q121 0 195 -56.5t74 -177.5v-301z"/>
<glyph glyph-name="acircumflex" horiz-adv-x="612" unicode="â" d="M521 569h-165l-57 69h-1l-56 -69h-165l141 183h162zM355 158v17q-28 13 -65 13q-54 0 -54 -28q0 -29 51 -29q43 0 68 27zM551 0h-191v34h-1q-63 -52 -140 -52q-73 0 -124 45.5t-51 126.5q0 77 50.5 123.5t142.5 46.5q70 0 118 -25v15q0 29 -32 44.5t-83 15.5 q-96 0 -162 -58h-3v173q87 46 207 46q121 0 195 -56.5t74 -177.5v-301z"/>
<glyph glyph-name="atilde" horiz-adv-x="612" unicode="ã" d="M395 581q-36 0 -91 19.5t-71 19.5q-25 0 -30 -39h-116q11 169 116 169q36 0 91 -19.5t71 -19.5q25 0 30 39h116q-11 -169 -116 -169zM355 158v17q-28 13 -65 13q-54 0 -54 -28q0 -29 51 -29q43 0 68 27zM551 0h-191v34h-1q-63 -52 -140 -52q-73 0 -124 45.5t-51 126.5 q0 77 50.5 123.5t142.5 46.5q70 0 118 -25v15q0 29 -32 44.5t-83 15.5q-96 0 -162 -58h-3v173q87 46 207 46q121 0 195 -56.5t74 -177.5v-301z"/>
<glyph glyph-name="adieresis" horiz-adv-x="612" unicode="ä" d="M514 594h-187v156h187v-156zM270 594h-187v156h187v-156zM355 158v17q-28 13 -65 13q-54 0 -54 -28q0 -29 51 -29q43 0 68 27zM551 0h-191v34h-1q-63 -52 -140 -52q-73 0 -124 45.5t-51 126.5q0 77 50.5 123.5t142.5 46.5q70 0 118 -25v15q0 29 -32 44.5t-83 15.5 q-96 0 -162 -58h-3v173q87 46 207 46q121 0 195 -56.5t74 -177.5v-301z"/>
<glyph glyph-name="aring" horiz-adv-x="612" unicode="å" d="M344 678q0 27 -35 27q-36 0 -36 -27q0 -29 36 -29q35 0 35 29zM459 678q0 -50 -41 -76t-111 -26t-109.5 25.5t-39.5 76.5q0 49 41.5 75t111.5 26q69 0 108.5 -26t39.5 -75zM355 158v17q-28 13 -65 13q-54 0 -54 -28q0 -29 51 -29q43 0 68 27zM551 0h-191v34h-1 q-63 -52 -140 -52q-73 0 -124 45.5t-51 126.5q0 77 50.5 123.5t142.5 46.5q70 0 118 -25v15q0 29 -32 44.5t-83 15.5q-96 0 -162 -58h-3v173q87 46 207 46q121 0 195 -56.5t74 -177.5v-301z"/>
<glyph glyph-name="ae" horiz-adv-x="915" unicode="æ" d="M676 360q-13 39 -62 39q-50 0 -64 -39h126zM287 131q46 0 72 29l-2 6q-2 6 -2 9q-26 13 -63 13q-56 0 -56 -28q0 -29 51 -29zM648 -18q-145 0 -228 81h-3q-85 -81 -198 -81q-73 0 -124 45.5t-51 126.5q0 77 50.5 123.5t142.5 46.5q70 0 118 -25v15q0 30 -32 45t-83 15 q-95 0 -162 -57h-3v172q87 46 207 46q110 0 175 -49h3q60 49 157 49q113 0 188.5 -67t75.5 -186q0 -43 -3 -63h-327q24 -79 139 -79q94 0 163 57h4v-169q-81 -46 -209 -46z"/>
<glyph glyph-name="ccedilla" horiz-adv-x="478" unicode="ç" d="M403 -107q0 -37 -34.5 -61.5t-105.5 -24.5q-80 0 -126 16v81h3q40 -19 83 -19q26 0 26 10q0 13 -73 17l22 82q-78 24 -125.5 93t-47.5 172q0 122 69 199t182 77q94 0 162 -41v-189h-3q-19 24 -49.5 40t-61.5 16q-43 0 -68.5 -28t-25.5 -75q0 -45 26.5 -73.5t71.5 -28.5 q30 0 60 15.5t50 40.5h3v-188q-48 -29 -108 -38l-4 -16q74 -20 74 -77z"/>
<glyph glyph-name="egrave" horiz-adv-x="596" unicode="è" d="M381 569h-165l-129 181h197zM356 360q-12 39 -61 39q-52 0 -64 -39h125zM537 28q-81 -46 -209 -46q-137 0 -220 74.5t-83 202.5q0 124 71.5 200t201.5 76q113 0 188.5 -67t75.5 -186q0 -33 -3 -63h-328q24 -78 139 -78q96 0 164 57h3v-170z"/>
<glyph glyph-name="eacute" horiz-adv-x="596" unicode="é" d="M356 360q-12 39 -61 39q-52 0 -64 -39h125zM537 28q-81 -46 -209 -46q-137 0 -220 74.5t-83 202.5q0 124 71.5 200t201.5 76q113 0 188.5 -67t75.5 -186q0 -33 -3 -63h-328q24 -78 139 -78q96 0 164 57h3v-170zM368 569h-165l104 181h190z"/>
<glyph glyph-name="ecircumflex" horiz-adv-x="596" unicode="ê" d="M356 360q-12 39 -61 39q-52 0 -64 -39h125zM537 28q-81 -46 -209 -46q-137 0 -220 74.5t-83 202.5q0 124 71.5 200t201.5 76q113 0 188.5 -67t75.5 -186q0 -33 -3 -63h-328q24 -78 139 -78q96 0 164 57h3v-170zM519 569h-165l-57 69h-1l-56 -69h-165l141 183h162z"/>
<glyph glyph-name="edieresis" horiz-adv-x="596" unicode="ë" d="M356 360q-12 39 -61 39q-52 0 -64 -39h125zM537 28q-81 -46 -209 -46q-137 0 -220 74.5t-83 202.5q0 124 71.5 200t201.5 76q113 0 188.5 -67t75.5 -186q0 -33 -3 -63h-328q24 -78 139 -78q96 0 164 57h3v-170zM513 594h-187v156h187v-156zM269 594h-187v156h187v-156z "/>
<glyph glyph-name="igrave" horiz-adv-x="335" unicode="ì" d="M244 569h-165l-129 181h197zM266 0h-196v517h196v-517z"/>
<glyph glyph-name="iacute" horiz-adv-x="335" unicode="í" d="M254 569h-165l104 181h190zM266 0h-196v517h196v-517z"/>
<glyph glyph-name="icircumflex" horiz-adv-x="335" unicode="î" d="M389 569h-165l-57 69h-1l-56 -69h-165l141 183h162zM266 0h-196v517h196v-517z"/>
<glyph glyph-name="idieresis" horiz-adv-x="335" unicode="ï" d="M383 594h-187v156h187v-156zM139 594h-187v156h187v-156zM266 0h-196v517h196v-517z"/>
<glyph glyph-name="eth" horiz-adv-x="636" unicode="ð" d="M405 254q0 47 -22.5 75t-62.5 28q-41 0 -65.5 -27t-24.5 -76q0 -47 23 -76.5t63 -29.5q41 0 65 28t24 78zM544 574l-73 -7l74 -120q66 -106 66 -192q0 -122 -80 -197.5t-215 -75.5q-131 0 -211 75t-80 198q0 90 43 155t123 89q37 14 76 15v1l-19 30l-170 -16v159l77 7 l-32 53v2h235l20 -33l166 17v-160z"/>
<glyph glyph-name="ntilde" horiz-adv-x="674" unicode="ñ" d="M434 581q-36 0 -91 19.5t-71 19.5q-25 0 -30 -39h-116q11 169 116 169q36 0 91 -19.5t71 -19.5q25 0 30 39h116q-11 -169 -116 -169zM609 0h-196v289q0 36 -18 55t-49 19q-49 0 -80 -46v-317h-196v517h195v-36h1q65 54 150 54q82 0 137.5 -47t55.5 -136v-352z"/>
<glyph glyph-name="ograve" horiz-adv-x="636" unicode="ò" d="M402 569h-165l-129 181h197zM611 259q0 -125 -80 -201t-215 -76q-131 0 -211 75.5t-80 201.5q0 125 80 200.5t215 75.5q130 0 210.5 -75.5t80.5 -200.5zM405 259q0 50 -22.5 80t-62.5 30q-41 0 -65.5 -29t-24.5 -81q0 -51 23 -81t63 -30q41 0 65 29t24 82z"/>
<glyph glyph-name="oacute" horiz-adv-x="636" unicode="ó" d="M611 259q0 -125 -80 -201t-215 -76q-131 0 -211 75.5t-80 201.5q0 125 80 200.5t215 75.5q130 0 210.5 -75.5t80.5 -200.5zM405 259q0 50 -22.5 80t-62.5 30q-41 0 -65.5 -29t-24.5 -81q0 -51 23 -81t63 -30q41 0 65 29t24 82zM405 569h-165l104 181h190z"/>
<glyph glyph-name="ocircumflex" horiz-adv-x="636" unicode="ô" d="M611 259q0 -125 -80 -201t-215 -76q-131 0 -211 75.5t-80 201.5q0 125 80 200.5t215 75.5q130 0 210.5 -75.5t80.5 -200.5zM405 259q0 50 -22.5 80t-62.5 30q-41 0 -65.5 -29t-24.5 -81q0 -51 23 -81t63 -30q41 0 65 29t24 82zM540 569h-165l-57 69h-1l-56 -69h-165 l141 183h162z"/>
<glyph glyph-name="otilde" horiz-adv-x="636" unicode="õ" d="M414 581q-36 0 -91 19.5t-71 19.5q-25 0 -30 -39h-116q11 169 116 169q36 0 91 -19.5t71 -19.5q25 0 30 39h116q-11 -169 -116 -169zM611 259q0 -125 -80 -201t-215 -76q-131 0 -211 75.5t-80 201.5q0 125 80 200.5t215 75.5q130 0 210.5 -75.5t80.5 -200.5zM405 259 q0 50 -22.5 80t-62.5 30q-41 0 -65.5 -29t-24.5 -81q0 -51 23 -81t63 -30q41 0 65 29t24 82z"/>
<glyph glyph-name="odieresis" horiz-adv-x="636" unicode="ö" d="M611 259q0 -125 -80 -201t-215 -76q-131 0 -211 75.5t-80 201.5q0 125 80 200.5t215 75.5q130 0 210.5 -75.5t80.5 -200.5zM405 259q0 50 -22.5 80t-62.5 30q-41 0 -65.5 -29t-24.5 -81q0 -51 23 -81t63 -30q41 0 65 29t24 82zM533 594h-187v156h187v-156zM289 594h-187 v156h187v-156z"/>
<glyph glyph-name="divide" d="M387 402h-176v159h176v-159zM387 18h-176v160h176v-160zM540 218h-481v143h481v-143z" unicode="÷"/>
<glyph glyph-name="oslash" horiz-adv-x="636" unicode="ø" d="M405 259q0 4 -0.5 10.5t-0.5 9.5l-98 -131h10q41 0 65 29t24 82zM230 259q0 -11 2 -31l103 139q-10 2 -15 2q-41 0 -65.5 -29t-24.5 -81zM215 -18h-190l64 92q-64 73 -64 185q0 125 80 200.5t215 75.5q50 0 92 -12l8 12h191l-64 -93q64 -75 64 -183q0 -125 -80 -201 t-215 -76q-51 0 -93 12z"/>
<glyph glyph-name="ugrave" horiz-adv-x="650" unicode="ù" d="M410 569h-165l-129 181h197zM589 517v-286q0 -115 -69.5 -182t-197.5 -67q-123 0 -192 66.5t-69 182.5v286h196v-290q0 -39 18 -59t49 -20t50 20t19 59v290h196z"/>
<glyph glyph-name="uacute" horiz-adv-x="650" unicode="ú" d="M589 517v-286q0 -115 -69.5 -182t-197.5 -67q-123 0 -192 66.5t-69 182.5v286h196v-290q0 -39 18 -59t49 -20t50 20t19 59v290h196zM404 569h-165l104 181h190z"/>
<glyph glyph-name="ucircumflex" horiz-adv-x="650" unicode="û" d="M589 517v-286q0 -115 -69.5 -182t-197.5 -67q-123 0 -192 66.5t-69 182.5v286h196v-290q0 -39 18 -59t49 -20t50 20t19 59v290h196zM547 569h-165l-57 69h-1l-56 -69h-165l141 183h162z"/>
<glyph glyph-name="udieresis" horiz-adv-x="650" unicode="ü" d="M589 517v-286q0 -115 -69.5 -182t-197.5 -67q-123 0 -192 66.5t-69 182.5v286h196v-290q0 -39 18 -59t49 -20t50 20t19 59v290h196zM540 594h-187v156h187v-156zM296 594h-187v156h187v-156z"/>
<glyph glyph-name="yacute" horiz-adv-x="628" unicode="ý" d="M402 569h-165l104 181h190zM359 -193h-222l82 193l-213 517h225l85 -269h1l83 269h220z"/>
<glyph glyph-name="thorn" horiz-adv-x="662" unicode="þ" d="M632 259q0 -127 -65 -202t-167 -75q-82 0 -133 37h-1v-212h-196v943h196v-269h1q65 54 146 54q99 0 159 -76t60 -200zM427 259q0 50 -23 77t-58 27q-48 0 -80 -46v-120q32 -43 78 -43q37 0 60 27t23 78z"/>
<glyph glyph-name="OE" horiz-adv-x="942" unicode="Œ" d="M460 196v290q-29 23 -71 23q-64 0 -102 -43t-38 -125q0 -78 35.5 -123.5t98.5 -45.5q45 0 77 24zM896 0h-402v17q-57 -35 -143 -35q-137 0 -227 99t-90 260t90.5 260t232.5 99q87 0 137 -36v18h376v-179h-203v-69h193v-179h-193v-76h229v-179z"/>
<glyph glyph-name="oe" horiz-adv-x="967" unicode="œ" d="M728 360q-12 39 -62 39t-64 -39h126zM405 259q0 50 -22.5 80t-62.5 30q-41 0 -65.5 -29t-24.5 -81q0 -50 23 -80.5t63 -30.5q41 0 65 29t24 82zM909 28q-81 -46 -209 -46q-125 0 -197 64h-1q-70 -64 -186 -64q-131 0 -211 75.5t-80 201.5q0 125 80 200.5t215 75.5 q106 0 177 -58h1q60 58 171 58q113 0 189 -67t76 -186q0 -36 -4 -63h-327q23 -78 139 -78q97 0 163 56h4v-169z"/>
<glyph glyph-name="Scaron" horiz-adv-x="564" unicode="Š" d="M528 208q0 -99 -68.5 -162.5t-188.5 -63.5q-121 0 -216 50v193h3q36 -33 92 -51.5t103 -18.5q69 0 69 39q0 17 -19.5 30.5t-49 23.5t-63.5 27.5t-63.5 39.5t-49 62.5t-19.5 93.5q0 75 37 134t113 82l-117 122h164l49 -42h1l48 42h164l-115 -120q58 -14 102 -39v-193h-3 q-75 69 -177 69q-58 0 -58 -36q0 -17 19.5 -31t48.5 -24t63 -28t63 -40t48.5 -63.5t19.5 -95.5z"/>
<glyph glyph-name="scaron" horiz-adv-x="507" unicode="š" d="M462 163q0 -84 -55.5 -132.5t-166.5 -48.5q-106 0 -187 36v172h3q29 -27 76.5 -42.5t89.5 -15.5q50 0 50 21q0 11 -22.5 18t-54 16.5t-63.5 25.5t-54.5 53t-22.5 91q0 84 54 131t156 47q104 0 179 -36v-172h-3q-30 27 -73.5 42.5t-81.5 15.5t-38 -20q0 -11 22 -18.5 t53.5 -16.5t63 -25.5t53.5 -52.5t22 -89zM334 568h-162l-141 182h165l57 -69h1l56 69h165z"/>
<glyph glyph-name="Ydieresis" horiz-adv-x="694" unicode="Ÿ" d="M566 693h-187v133h187v-133zM322 693h-187v133h187v-133zM451 0h-206v247l-239 435h246l92 -201h1l104 201h239l-237 -435v-247z"/>
<glyph glyph-name="Alpha" horiz-adv-x="724" unicode="Α" d="M399 308l-41 132h-1l-41 -132h83zM717 0h-227l-39 127h-186l-39 -127h-219l261 700h188z"/>
<glyph glyph-name="Beta" horiz-adv-x="665" unicode="Β" d="M379 469q0 16 -12.5 26t-32.5 10h-47v-77h56q36 16 36 41zM420 219q0 39 -51 39h-82v-81h81q52 0 52 42zM627 184q0 -184 -245 -184h-302v682h293q98 0 156.5 -45.5t58.5 -128.5q0 -105 -98 -157v-1q59 -13 98 -55.5t39 -110.5z"/>
<glyph glyph-name="Gamma" horiz-adv-x="526" unicode="Γ" d="M287 0h-207v682h416v-198h-209v-484z"/>
<glyph glyph-name="uni0394" horiz-adv-x="724" unicode="Δ" d="M438 183l-80 258h-1l-80 -258h161zM717 0h-710l261 700h188z"/>
<glyph glyph-name="Epsilon" horiz-adv-x="562" unicode="Ε" d="M516 0h-436v682h410v-179h-203v-68h193v-180h-193v-76h229v-179z"/>
<glyph glyph-name="Zeta" horiz-adv-x="690" unicode="Ζ" d="M641 0h-593v12l234 465v1h-214v204h551v-12l-234 -465v-1h256v-204z"/>
<glyph glyph-name="Eta" horiz-adv-x="775" unicode="Η" d="M695 0h-207v251h-201v-251h-207v682h207v-227h201v227h207v-682z"/>
<glyph glyph-name="Theta" horiz-adv-x="771" unicode="Θ" d="M476 262h-181v158h181v-158zM523 341q0 78 -36 123t-98 45q-64 0 -102 -43t-38 -125q0 -78 35.5 -123.5t98.5 -45.5q64 0 102 43.5t38 125.5zM737 341q0 -163 -96 -261t-258 -98q-156 0 -252.5 98t-96.5 261t96.5 261t258.5 98q155 0 251.5 -98.5t96.5 -260.5z"/>
<glyph glyph-name="Iota" horiz-adv-x="367" unicode="Ι" d="M287 0h-207v682h207v-682z"/>
<glyph glyph-name="Kappa" horiz-adv-x="707" unicode="Κ" d="M687 0h-235l-159 343v7l151 332h230l-160 -332v-2zM287 0h-207v682h207v-682z"/>
<glyph glyph-name="Lambda" horiz-adv-x="706" unicode="Λ" d="M699 0h-229l-121 392h-1l-120 -392h-221l260 700h171z"/>
<glyph glyph-name="Mu" horiz-adv-x="900" unicode="Μ" d="M846 0h-207l-24 262h-1l-157 -280h-14l-159 281h-1l-21 -263h-208l60 685h170l166 -311h1l165 311h170z"/>
<glyph glyph-name="Nu" horiz-adv-x="784" unicode="Ν" d="M703 -3h-171l-244 309h-1v-306h-207v619l-39 56v7h209l246 -319h1v319h206v-685z"/>
<glyph glyph-name="Xi" horiz-adv-x="629" unicode="Ξ" d="M544 255h-459v180h459v-180zM563 503h-497v179h497v-179zM580 0h-531v179h531v-179z"/>
<glyph glyph-name="Omicron" horiz-adv-x="771" unicode="Ο" d="M523 341q0 78 -36 123t-98 45q-64 0 -102 -43t-38 -125q0 -78 35.5 -123.5t98.5 -45.5q64 0 102 43.5t38 125.5zM737 341q0 -163 -96 -261t-258 -98q-156 0 -252.5 98t-96.5 261t96.5 261t258.5 98q155 0 251.5 -98.5t96.5 -260.5z"/>
<glyph glyph-name="Pi" horiz-adv-x="764" unicode="Π" d="M683 0h-206v485h-190v-485h-207v682h603v-682z"/>
<glyph glyph-name="Rho" horiz-adv-x="652" unicode="Ρ" d="M406 441q0 28 -17.5 43.5t-46.5 15.5h-55v-133q59 1 89 21t30 53zM613 460q0 -124 -81.5 -189t-244.5 -86v-185h-207v682h284q111 0 180 -58.5t69 -163.5z"/>
<glyph glyph-name="Sigma" horiz-adv-x="621" unicode="Σ" d="M588 0h-571v12l197 338v1l-179 319v12h532v-190h-168v-1l71 -135v-12l-89 -153v-1h207v-190z"/>
<glyph glyph-name="Tau" horiz-adv-x="606" unicode="Τ" d="M407 0h-207v485h-170v197h546v-197h-169v-485z"/>
<glyph glyph-name="Upsilon" horiz-adv-x="694" unicode="Υ" d="M451 0h-206v247l-239 435h246l92 -201h1l104 201h239l-237 -435v-247z"/>
<glyph glyph-name="Phi" horiz-adv-x="889" unicode="Φ" d="M544 235q50 5 75 34t25 72q0 42 -25 71t-75 34v-211zM346 235v211q-51 -5 -76 -34t-25 -71q0 -43 25 -72t76 -34zM548 -2h-207v59q-146 12 -228.5 84.5t-82.5 199.5q0 126 82.5 198.5t228.5 84.5v60h207v-60q147 -12 229.5 -84.5t82.5 -198.5q0 -127 -82.5 -199.5 t-229.5 -84.5v-59z"/>
<glyph glyph-name="Chi" horiz-adv-x="747" unicode="Χ" d="M724 0h-247l-103 190h-1l-94 -190h-241l185 346l-200 336h245l102 -189h1l96 189h240l-185 -336z"/>
<glyph glyph-name="Psi" horiz-adv-x="872" unicode="Ψ" d="M539 0h-206v138q-151 14 -220.5 79t-69.5 199v266h207v-267q0 -41 18.5 -65t64.5 -33v365h206v-366q47 9 65 33t18 66v267h207v-266q0 -134 -69.5 -199t-220.5 -79v-138z"/>
<glyph glyph-name="alpha" horiz-adv-x="652" unicode="α" d="M583 0h-196v37h-1q-64 -55 -142 -55q-99 0 -156.5 76t-57.5 201q0 127 62.5 201.5t164.5 74.5q82 0 147 -52h1l175 49h3v-532zM387 200v120q-34 43 -74 43q-36 0 -57 -27t-21 -77q0 -51 20.5 -78t55.5 -27q42 0 76 46z"/>
<glyph glyph-name="beta" horiz-adv-x="666" unicode="β" d="M437 228q0 68 -103 68h-34v172h50q40 20 40 63q0 24 -15.5 41.5t-42.5 17.5q-32 0 -46.5 -19.5t-14.5 -61.5v-312q32 -43 92 -43q32 0 53 18t21 56zM641 202q0 -97 -65.5 -158.5t-169.5 -61.5q-84 0 -134 37h-1v-157l-195 -55h-1v704q0 127 64.5 186.5t198.5 59.5 q125 0 188.5 -51.5t63.5 -138.5q0 -111 -95 -171v-1q65 -16 105.5 -63.5t40.5 -129.5z"/>
<glyph glyph-name="gamma" horiz-adv-x="610" unicode="γ" d="M388 -140l-190 -53h-2q0 96 -15 178t-59 207l-116 325h219l59 -189l19 -66h1l14 48q44 136 79 207h212q-83 -158 -209 -458l-22 -58q10 -52 10 -141z"/>
<glyph glyph-name="delta" horiz-adv-x="619" unicode="δ" d="M389 241q0 73 -67 107l-12 6q-80 -38 -80 -113q0 -43 22 -68t58 -25q34 0 56.5 25.5t22.5 67.5zM593 242q0 -112 -79 -186t-207 -74q-123 0 -202.5 72.5t-79.5 180.5q0 67 29.5 117.5t100.5 103.5q-48 51 -48 126q0 80 56.5 127.5t171.5 47.5q97 0 191 -34v-173h-3 q-78 57 -160 57q-59 0 -59 -25q0 -11 15 -23.5t54 -33.5l37 -19q183 -93 183 -264z"/>
<glyph glyph-name="epsilon" horiz-adv-x="516" unicode="ε" d="M29 144q0 48 26.5 84.5t74.5 48.5v1q-38 21 -54.5 47.5t-16.5 67.5q0 68 55.5 105t166.5 37q119 0 186 -39v-165h-3q-18 24 -53.5 39t-76.5 15q-61 0 -61 -24t38 -24h115v-150h-170q-20 -7 -20 -25q0 -29 77 -29q104 0 158 54h3v-164q-74 -41 -211 -41q-116 0 -175 43 t-59 119z"/>
<glyph glyph-name="zeta" horiz-adv-x="503" unicode="ζ" d="M436 -142h-198q50 60 50 99q0 19 -11 30q-9 9 -42 14.5t-75 19.5t-73 43q-63 58 -63 167q0 83 40.5 160.5t140.5 189.5v1h-147v168h426v-149q-153 -152 -204 -223t-51 -128q0 -33 19 -52q18 -23 100 -36.5t110 -41.5q29 -26 29 -83q0 -77 -51 -179z"/>
<glyph glyph-name="eta" horiz-adv-x="674" unicode="η" d="M609 -194h-196v483q0 36 -18 55t-49 19q-49 0 -80 -46v-317h-196v517h195v-36h1q65 54 150 54q82 0 137.5 -47t55.5 -136v-546z"/>
<glyph glyph-name="theta" horiz-adv-x="609" unicode="θ" d="M305 148q58 0 72 115h-146q15 -115 74 -115zM305 534q-61 0 -74 -117h147q-13 117 -73 117zM579 341q0 -174 -75.5 -266.5t-198.5 -92.5t-199 93t-76 266q0 174 74 266.5t201 92.5t200.5 -92.5t73.5 -266.5z"/>
<glyph glyph-name="iota" horiz-adv-x="335" unicode="ι" d="M266 0h-196v517h196v-517z"/>
<glyph glyph-name="kappa" horiz-adv-x="652" unicode="κ" d="M641 0h-228l-142 259v5l134 253h223l-144 -253v-2zM266 0h-196v517h196v-517z"/>
<glyph glyph-name="lambda" horiz-adv-x="627" unicode="λ" d="M620 0h-219l-78 269h-1l-90 -269h-225l219 517q-61 146 -129 233h230q59 -89 109 -234z"/>
<glyph glyph-name="uni03BC" horiz-adv-x="667" unicode="μ" d="M597 0h-186v37h-1q-16 -23 -42 -39t-53 -16q-44 0 -70 26h-2q11 -51 23 -146l-195 -55h-1v710h196v-284q0 -40 18 -59.5t48 -19.5q27 0 46 16.5t23 48.5v298h196v-517z"/>
<glyph glyph-name="nu" horiz-adv-x="621" unicode="ν" d="M379 -18h-143l-229 535h222l89 -270h1q49 108 79 270h212q-47 -225 -231 -535z"/>
<glyph glyph-name="xi" horiz-adv-x="520" unicode="ξ" d="M453 -142h-198q50 59 50 99q0 19 -10 28q-9 10 -43.5 16t-78.5 19.5t-75 42.5q-64 58 -64 151q0 70 36 117t104 63v1q-47 23 -74 69.5t-27 103.5q0 88 61.5 138.5t171.5 50.5q101 0 188 -47v-189h-4q-64 66 -136 66q-30 0 -52.5 -14t-22.5 -44q0 -62 80 -62h90v-171h-168 q-43 -20 -43 -60q0 -33 25 -48q26 -16 105 -28.5t107 -39.5q29 -26 29 -82q0 -87 -51 -180z"/>
<glyph glyph-name="omicron" horiz-adv-x="636" unicode="ο" d="M611 259q0 -125 -80 -201t-215 -76q-131 0 -211 75.5t-80 201.5q0 125 80 200.5t215 75.5q130 0 210.5 -75.5t80.5 -200.5zM405 259q0 50 -22.5 80t-62.5 30q-41 0 -65.5 -29t-24.5 -81q0 -51 23 -81t63 -30q41 0 65 29t24 82z"/>
<glyph glyph-name="pi" horiz-adv-x="748" unicode="π" d="M629 0h-196v349h-98q0 -149 -33 -349h-196q33 201 33 349h-128v6l66 162h643v-168h-91v-349z"/>
<glyph glyph-name="rho" horiz-adv-x="653" unicode="ρ" d="M419 259q0 52 -22.5 81.5t-57.5 29.5q-82 0 -82 -113v-60q34 -43 79 -43q36 0 59.5 27.5t23.5 77.5zM624 259q0 -127 -65 -202t-168 -75q-80 0 -133 37h-1v-212h-196v457q0 138 77.5 204.5t206.5 66.5q126 0 202.5 -74t76.5 -202z"/>
<glyph glyph-name="sigma1" horiz-adv-x="457" unicode="ς" d="M229 -12q-8 8 -36.5 17t-62 26t-56.5 45q-49 60 -49 177q0 130 68.5 206t184.5 76q76 0 144 -42v-187h-3q-18 24 -46.5 39.5t-57.5 15.5q-39 0 -62 -27.5t-23 -74.5q0 -43 19 -67q20 -24 80.5 -38t81.5 -33q28 -27 28 -84q0 -84 -52 -179h-198q50 67 50 100q0 19 -10 30z "/>
<glyph glyph-name="sigma" horiz-adv-x="649" unicode="σ" d="M388 244q0 65 -60 105h-10q-38 0 -63 -26t-25 -75q0 -44 21.5 -72.5t59.5 -28.5q35 0 56 26.5t21 70.5zM591 222q0 -104 -79 -172t-205 -68q-123 0 -202.5 74.5t-79.5 191.5q0 127 78 198t214 71h304v-171h-77q47 -51 47 -124z"/>
<glyph glyph-name="tau" horiz-adv-x="500" unicode="τ" d="M348 0h-196v349h-130v168h457v-168h-131v-349z"/>
<glyph glyph-name="upsilon" horiz-adv-x="652" unicode="υ" d="M377 517h198q21 -156 21 -241q0 -136 -69 -215t-204 -79q-126 0 -192 66.5t-66 182.5v286h196v-290q0 -79 64 -79q75 0 75 121q0 91 -23 248z"/>
<glyph glyph-name="phi" horiz-adv-x="828" unicode="φ" d="M598 259q0 100 -91 111v-222q91 11 91 111zM803 259q0 -116 -77 -186.5t-214 -84.5v-181h-196v181q-138 14 -214.5 84.5t-76.5 186.5t74 187t217 84v220h196v-221q142 -13 216.5 -83.5t74.5 -186.5zM320 148v222q-90 -11 -90 -111q0 -98 90 -111z"/>
<glyph glyph-name="chi" horiz-adv-x="618" unicode="χ" d="M611 -193h-226l-79 212h-1l-75 -212h-222l163 352l-165 358h227l75 -213h1l79 213h222l-162 -358z"/>
<glyph glyph-name="psi" horiz-adv-x="881" unicode="ψ" d="M541 -193h-196v180q-149 15 -214.5 78t-65.5 175v277h196v-276q0 -40 18.5 -62t65.5 -28v599h196v-598q50 9 69 39t19 85q0 85 -21 241h196q21 -156 21 -241q0 -128 -66.5 -200.5t-217.5 -88.5v-180z"/>
<glyph glyph-name="endash" d="M590 190h-580v161h580v-161z" unicode="–"/>
<glyph glyph-name="emdash" horiz-adv-x="1200" unicode="—" d="M1190 190h-1180v161h1180v-161z"/>
<glyph glyph-name="quoteleft" horiz-adv-x="300" unicode="‘" d="M191 355h-181v5l84 322h180z"/>
<glyph glyph-name="quotesinglbase" horiz-adv-x="300" unicode="‚" d="M166 -138h-179l82 327h182v-5z"/>
<glyph glyph-name="quotedblleft" horiz-adv-x="525" unicode="“" d="M436 355h-181v5l84 322h180zM204 355h-181v5l84 322h180z"/>
<glyph glyph-name="quotedblright" horiz-adv-x="525" unicode="”" d="M434 355h-179l82 327h182v-5zM202 355h-179l82 327h182v-5z"/>
<glyph glyph-name="dagger" horiz-adv-x="585" unicode="†" d="M382 0h-179v399h-129v159h129v124h179v-124h129v-159h-129v-399z"/>
<glyph glyph-name="daggerdbl" horiz-adv-x="585" unicode="‡" d="M382 0h-179v124h-129v159h129v116h-129v159h129v124h179v-124h129v-159h-129v-116h129v-159h-129v-124z"/>
<glyph glyph-name="ellipsis" horiz-adv-x="1000" unicode="…" d="M913 0h-193v189h193v-189zM596 0h-193v189h193v-189zM279 0h-193v189h193v-189z"/>
<glyph glyph-name="perthousand" horiz-adv-x="1342" unicode="‰" d="M409 0h-166l305 682h166zM1189 222q0 63 -10 84.5t-30 21.5q-21 0 -31 -21t-10 -85q0 -60 10 -84t30 -24q21 0 31 24t10 84zM1333 222q0 -118 -52 -176t-133 -58q-80 0 -132 58t-52 176q0 119 52 176t132 57q81 0 133 -57t52 -176zM804 222q0 63 -10 84.5t-30 21.5 q-21 0 -31 -21t-10 -85q0 -60 10 -84t30 -24q21 0 31 24t10 84zM948 222q0 -118 -52 -176t-133 -58q-80 0 -132 58t-52 176q0 119 52 176t132 57q81 0 133 -57t52 -176zM233 461q0 63 -10 84.5t-30 21.5q-21 0 -31 -21t-10 -85q0 -60 10 -84t30 -24q21 0 31 24t10 84z M377 461q0 -118 -52 -176t-133 -58q-80 0 -132 58t-52 176q0 119 52 176t132 57q81 0 133 -57t52 -176z"/>
<glyph glyph-name="guilsinglleft" horiz-adv-x="336" unicode="‹" d="M311 77h-179l-107 191v6l107 191h179l-101 -194z"/>
<glyph glyph-name="guilsinglright" horiz-adv-x="336" unicode="›" d="M204 77h-179l101 194l-101 194h179l107 -191v-6z"/>
<glyph glyph-name="fraction" horiz-adv-x="209" unicode="⁄" d="M35 0h-166l305 682h166z"/>
<glyph glyph-name="Euro" horiz-adv-x="569" unicode="€" d="M534 28q-75 -46 -167 -46q-93 0 -162 51.5t-95 169.5h-73v124h60v15v16h-60v124h74q26 111 92.5 164.5t160.5 53.5q98 0 167 -46v-168h-4q-51 49 -117 49q-71 0 -97 -53h169v-124h-190v-18v-13h190v-124h-169q27 -56 97 -56q68 0 120 49h4v-168z"/>
<glyph glyph-name="trademark" horiz-adv-x="870" unicode="™" d="M839 297h-135l-10 121h-1l-79 -131h-10l-79 131h-1l-10 -121h-136l34 385h112l85 -154h1l83 154h113zM243 297h-134v256h-91v129h318v-129h-93v-256z"/>
<glyph glyph-name="arrowleft" horiz-adv-x="795" unicode="←" d="M345 51l-272 284v6l272 284h232l-188 -188h333v-198h-333l188 -188h-232z"/>
<glyph glyph-name="arrowup" horiz-adv-x="795" unicode="↑" d="M684 389v-231l-188 188v-334h-198v334l-188 -188v231l284 272h6z"/>
<glyph glyph-name="arrowright" horiz-adv-x="795" unicode="→" d="M450 51h-232l188 188h-333v198h333l-188 188h232l272 -284v-6z"/>
<glyph glyph-name="arrowdown" horiz-adv-x="795" unicode="↓" d="M684 285l-284 -273h-6l-284 273v231l188 -188v333h198v-333l188 188v-231z"/>
<glyph glyph-name="partialdiff" horiz-adv-x="601" unicode="∂" d="M240 214q0 -35 18 -53.5t49 -18.5q30 0 46 19.5t16 52.5q0 72 -67 72q-30 0 -46 -19.5t-16 -52.5zM34 214q0 82 43 137.5t113 74.5q27 7 55 9v2l-155 243v2h241l204 -329q39 -64 39 -139q0 -109 -73.5 -170.5t-196.5 -61.5q-122 0 -196 61t-74 171z"/>
<glyph glyph-name="product" horiz-adv-x="775" unicode="∏" d="M695 -193h-207v669h-201v-669h-207v875h615v-875z"/>
<glyph glyph-name="summation" horiz-adv-x="660" unicode="∑" d="M618 -193h-593v12l250 431v1l-232 419v12h554v-206h-181v-1l117 -219v-12l-135 -229v-1h220v-207z"/>
<glyph glyph-name="minus" d="M540 218h-481v143h481v-143z" unicode="−"/>
<glyph glyph-name="radical" horiz-adv-x="730" unicode="√" d="M512 0h-299l-102 411h-95v149h269l83 -386h8l123 508h211z"/>
<glyph glyph-name="infinity" horiz-adv-x="764" unicode="∞" d="M211 225q46 0 78 67q-35 65 -78 65q-24 0 -38 -20t-14 -45q0 -28 13.5 -47.5t38.5 -19.5zM606 292q0 29 -14 46t-41 17q-23 0 -39.5 -17.5t-32.5 -47.5q32 -65 71 -65q28 0 42 18.5t14 48.5zM747 294q0 -99 -50.5 -157.5t-123.5 -58.5q-112 0 -186 119h-2 q-73 -118 -185 -118q-92 0 -137.5 59t-45.5 156q0 88 48.5 149.5t134.5 61.5q103 0 179 -118h1q43 60 81 89t98 29q91 0 139.5 -59.5t48.5 -151.5z"/>
<glyph glyph-name="approxequal" d="M526 133q-50 -52 -119 -52q-39 0 -109 30.5t-104 30.5q-66 0 -121 -62v151q53 51 119 51q40 0 110.5 -30.5t102.5 -30.5q67 0 121 62v-150zM526 365q-54 -52 -119 -52q-39 0 -109 31.5t-104 31.5q-66 0 -121 -62v150q53 51 119 51q40 0 110.5 -31t102.5 -31q67 0 121 63 v-151z" unicode="≈"/>
<glyph glyph-name="notequal" d="M540 105h-233l-32 -73h-132l31 73h-115v140h176l39 91h-215v142h277l36 85h131l-35 -85h72v-142h-133l-40 -91h173v-140z" unicode="≠"/>
<glyph glyph-name="lessequal" d="M540 208l-481 116v146l481 116v-145l-286 -42v-2l286 -43v-146zM540 44h-481v143h481v-143z" unicode="≤"/>
<glyph glyph-name="greaterequal" d="M540 44h-481v143h481v-143zM540 324l-481 -116v146l286 43v2l-286 42v145l481 -116v-146z" unicode="≥"/>
<glyph glyph-name="lozenge" d="M401 293l-102 119l-102 -119l102 -119zM568 293l-269 -305l-269 305l269 305z" unicode="◊"/>
</font>
</defs>
</svg>
